<?xml version="1.0" encoding="UTF-8"?>
<svg id="Layer_1" data-name="Layer 1" xmlns="http://www.w3.org/2000/svg" version="1.1" viewBox="0 0 800 617.4">
  <defs>
    <style>
      .cls-1 {
        fill: #fff;
        stroke-width: 0px;
      }
    </style>
  </defs>
  <g id="SVGRepo_iconCarrier" data-name="SVGRepo iconCarrier">
    <path class="cls-1" d="M677.1,51.8c-51.8-24-106.9-41.7-165-51.8-7.2,12.6-15.6,29.9-21,43.8-61.4-9.3-122.5-9.3-182.7,0-5.9-13.9-14.3-31.1-21.5-43.8-58.1,10.1-113.2,27.8-165,51.8C17.6,209.2-10.6,362.8,3.3,513.9c69.4,51.8,136.4,82.9,202.4,103.5,16.4-22.3,30.7-46.3,43.4-71.1-24-8.8-46.7-20.2-68.2-33.2,5.9-4.2,11.4-8.8,16.8-13,131.7,61.4,274.4,61.4,404.5,0,5.5,4.6,10.9,8.8,16.8,13-21.5,13-44.6,24-68.2,33.2,12.6,24.8,26.9,48.8,43.4,71.1,66.1-20.6,133.4-51.8,202.4-103.5,16.4-175.5-28.2-327.4-118.7-462.1h-.8ZM266.8,421.3c-39.6,0-72-36.6-72-81.7s31.6-81.7,72-81.7,72.4,36.6,72,81.7c0,44.6-31.6,81.7-72,81.7ZM532.3,421.3c-39.6,0-72-36.6-72-81.7s31.6-81.7,72-81.7,72.4,36.6,72,81.7c0,44.6-31.6,81.7-72,81.7Z"/>
  </g>
</svg>