<?xml version="1.0" encoding="UTF-8"?>
<svg id="Layer_2" data-name="Layer 2" xmlns="http://www.w3.org/2000/svg" version="1.1" viewBox="0 0 1316.6 265.4">
  <defs>
    <style>
      .cls-1 {
        fill: #fff;
        stroke-width: 0px;
      }
    </style>
  </defs>
  <g id="Layer_1-2" data-name="Layer 1-2">
    <g>
      <g>
        <path class="cls-1" d="M412.3,127.5V.2h127.4v79.6h-23.9l23.9,47.8h-31.9l-23.9-47.8h-39.8v47.8h-31.9,0ZM507.9,47.9v-15.9h-63.7v15.9h63.7Z"/>
        <path class="cls-1" d="M552.4,127.5V.2h127.4v127.4h-127.4ZM647.9,95.7V32h-63.7v63.7h63.7Z"/>
        <path class="cls-1" d="M692.5,127.5V.2h127.4v31.8h-95.5v63.7h95.5v31.8h-127.4Z"/>
        <path class="cls-1" d="M460.1,265.4v-95.5h-47.8v-31.9h127.4v31.9h-47.8v95.5h-31.9Z"/>
        <path class="cls-1" d="M552.4,265.4v-127.4h127.4v127.4h-31.8v-47.8h-63.7v47.8h-31.8,0ZM647.9,185.8v-15.9h-63.7v15.9h63.7Z"/>
        <path class="cls-1" d="M692.5,265.4v-127.4h31.8l63.7,31.9v-31.9h31.8v127.4h-31.8v-63.7l-63.7-31.9v95.5h-31.8Z"/>
      </g>
      <g>
        <path class="cls-1" d="M1096.8,127.5v-31.8l-47.8-47.8V.2h31.8v31.8l31.8,31.8,31.8-31.9V.2h31.8v47.8l-47.8,47.8v31.8h-31.9Z"/>
        <path class="cls-1" d="M1049.1,265.4v-127.4h127.4v31.9h-95.5v15.9h95.5v31.9h-95.5v15.9h95.5v31.8h-127.4Z"/>
        <path class="cls-1" d="M1189.2,265.4v-127.4h127.4v79.6h-23.9l23.9,47.8h-31.8l-23.9-47.8h-39.8v47.8h-31.8,0ZM1284.7,185.8v-15.9h-63.7v15.9h63.7Z"/>
      </g>
      <path class="cls-1" d="M884.4,55.2v42.1h88.2l12.6-12.6v-38.8L1035.6,0v97.3l-25.2,25.2,25.2,25.2v117.7h-50.4v-105.1l-12.6-12.6h-88.2v117.7h-50.4V55.2l25.2,9.4,25.2-9.4ZM834,43.8v-15l25.2,9.4,25.2-9.4v15l-25.2,9.4s-25.2-9.4-25.2-9.4Z"/>
      <circle class="cls-1" cx="859.2" cy="15.6" r="13.3"/>
      <g>
        <path class="cls-1" d="M275.9,171.5h0c-12,10.5-25,20.6-38.9,30.3-18.7,13-37.9,24.4-56.8,34,33.3,8.8,65.4,15.5,87.8,16.1,69.5,1.9,47.7-32.7,47.7-32.7l-39.7-47.6h0ZM256.4,239.1c-1.1,0-1.9-.9-1.9-1.9s.9-1.9,1.9-1.9,1.9.9,1.9,1.9-.9,1.9-1.9,1.9Z"/>
        <path class="cls-1" d="M34.5,189.3s53.9,19.9,113,37.3c12.6-5.2,25.4-11.4,38.4-18.4,0,0,0-.1,0-.2,0-2.3,1.9-4.2,4.2-4.2s1.8.3,2.4.8c8.3-4.7,16.7-9.6,25-15,16.2-10.4,31.6-21.5,45.9-33l-69.7-83.6c-57.4-71.6-114.5,0-114.5,0L1.1,168.3c-8.1,8.6,33.5,21,33.5,21h0ZM218.5,147.1c1.8,0,3.2,1.4,3.2,3.2s-1.4,3.2-3.2,3.2-3.2-1.4-3.2-3.2,1.4-3.2,3.2-3.2ZM146.9,159.9c-1.9,0-3.4-1.5-3.4-3.4s1.5-3.4,3.4-3.4,3.4,1.5,3.4,3.4-1.5,3.4-3.4,3.4ZM187.6,138c2.3,0,4.2,1.9,4.2,4.2s-1.9,4.2-4.2,4.2-4.2-1.9-4.2-4.2,1.9-4.2,4.2-4.2ZM168.9,91c2.6,0,4.7,2.1,4.7,4.7s-2.1,4.7-4.7,4.7-4.7-2.1-4.7-4.7,2.1-4.7,4.7-4.7ZM147.7,107.8c3.7,0,6.7,3,6.7,6.7s-3,6.7-6.7,6.7-6.7-3-6.7-6.7,3-6.7,6.7-6.7ZM138.6,75.7c1,0,1.8.8,1.8,1.8s-.8,1.8-1.8,1.8-1.8-.8-1.8-1.8.8-1.8,1.8-1.8ZM133,187.9c1.2,0,2.1.9,2.1,2.1s-.9,2.1-2.1,2.1-2.1-.9-2.1-2.1.9-2.1,2.1-2.1ZM112.4,146.5c1,0,1.9.8,1.9,1.9s-.8,1.9-1.9,1.9-1.9-.8-1.9-1.9.8-1.9,1.9-1.9ZM100,96.8c1.9,0,3.5,1.6,3.5,3.5s-1.6,3.5-3.5,3.5-3.5-1.6-3.5-3.5,1.6-3.5,3.5-3.5ZM80.4,153.2c.9,0,1.7.8,1.7,1.7s-.8,1.7-1.7,1.7-1.7-.8-1.7-1.7.8-1.7,1.7-1.7ZM73.5,121.2c1.3,0,2.4,1.1,2.4,2.4s-1.1,2.4-2.4,2.4-2.4-1.1-2.4-2.4,1.1-2.4,2.4-2.4ZM33.5,174.6c-1.9,0-3.5-1.6-3.5-3.5s1.6-3.5,3.5-3.5,3.5,1.6,3.5,3.5-1.6,3.5-3.5,3.5Z"/>
        <path class="cls-1" d="M354.4,58c2.8-10.7,4-22.9-.1-33.2l12.8,8.6-8.8-17.4,4.2-15.8-11.3,9.6-13.8-2.7,7.9,8.1-4.7,15.2,10.5-6.4c5.9,17-.9,35.7-9.2,51-45.2,80-188.1,174.3-280.5,175.9-46.1,0-50.4-28.5-37.8-60-3-1-6.5-2.4-10.2-3.9-3.1,6.9-5.5,13.8-7.1,20.9-7.9,38.2,19.9,57.1,54.8,57.5,100.6,1.6,265.2-109.7,293.2-207.4h0Z"/>
        <path class="cls-1" d="M212.5,65.5l65.6,78.6c6.2-5.4,12-10.9,17.6-16.4l-57.9-69.4c-31-38.7-61.9-35.6-83.8-24.5,17.8-1.1,38.2,6.2,58.6,31.7h0Z"/>
        <path class="cls-1" d="M359.8,204.4l-52.7-63.2c-5.3,5.8-11,11.6-16.9,17.3l44.4,53.1s9.7,15.4-4.4,25.1c47.4-4.1,29.7-32.3,29.7-32.3h0Z"/>
      </g>
    </g>
  </g>
</svg>