<?xml version="1.0" encoding="UTF-8"?>
<svg id="Layer_2" data-name="Layer 2" xmlns="http://www.w3.org/2000/svg" viewBox="0 0 336.37 243.03">
  <defs>
    <style>
      .cls-1 {
        fill: #fff;
        stroke-width: 0px;
      }
    </style>
  </defs>
  <g id="Layer_1-2" data-name="Layer 1">
    <g>
      <polygon class="cls-1" points="72.58 66.68 .97 154.06 42.38 146.39 72.58 66.68"/>
      <g>
        <path class="cls-1" d="m248.8,152.15l-3.44-4.12c-9.48,7.68-19.53,15.17-30.02,22.34.23.49.37,1.04.37,1.62,0,2.14-1.74,3.88-3.88,3.88-1.12,0-2.12-.48-2.83-1.24-2.08,1.38-4.18,2.74-6.29,4.09-19.55,12.47-39.16,23.03-58.16,31.42,3.81,1.09,7.63,2.15,11.44,3.2,19.1-9.18,38.56-20.54,57.59-33.79,12.58-8.76,24.37-17.95,35.22-27.4Z"/>
        <path class="cls-1" d="m252.8,156.95c-11,9.58-22.93,18.89-35.65,27.74-17.17,11.95-34.7,22.39-52.04,31.11,30.49,8.05,59.92,14.17,80.4,14.73,63.71,1.75,43.69-29.97,43.69-29.97l-36.4-43.62Zm-17.88,62.01c-.96,0-1.75-.78-1.75-1.75s.78-1.75,1.75-1.75,1.75.78,1.75,1.75-.78,1.75-1.75,1.75Z"/>
        <path class="cls-1" d="m31.62,173.26s49.36,18.25,103.49,34.15c11.51-4.8,23.31-10.44,35.22-16.87,0-.07-.02-.13-.02-.2,0-2.14,1.74-3.88,3.88-3.88.84,0,1.61.27,2.24.72,7.62-4.27,15.27-8.84,22.91-13.72,14.88-9.49,29-19.68,42.02-30.22l-63.89-76.56c-52.56-65.63-104.9,0-104.9,0L.97,154.06c-7.46,7.83,30.66,19.2,30.66,19.2Zm168.57-38.66c1.61,0,2.91,1.3,2.91,2.91s-1.3,2.91-2.91,2.91-2.91-1.3-2.91-2.91,1.3-2.91,2.91-2.91Zm-65.58,11.79c-1.71,0-3.1-1.39-3.1-3.1s1.39-3.1,3.1-3.1,3.1,1.39,3.1,3.1-1.39,3.1-3.1,3.1Zm37.25-20.1c2.14,0,3.88,1.74,3.88,3.88s-1.74,3.88-3.88,3.88-3.88-1.74-3.88-3.88,1.74-3.88,3.88-3.88Zm-17.07-43.05c2.36,0,4.27,1.91,4.27,4.27s-1.91,4.27-4.27,4.27-4.27-1.91-4.27-4.27,1.91-4.27,4.27-4.27Zm-19.49,15.42c3.38,0,6.12,2.74,6.12,6.12s-2.74,6.12-6.12,6.12-6.12-2.74-6.12-6.12,2.74-6.12,6.12-6.12Zm-8.35-29.49c.91,0,1.65.74,1.65,1.65s-.74,1.65-1.65,1.65-1.65-.74-1.65-1.65.74-1.65,1.65-1.65Zm-5.14,102.83c1.07,0,1.94.87,1.94,1.94s-.87,1.94-1.94,1.94-1.94-.87-1.94-1.94.87-1.94,1.94-1.94Zm-18.84-37.94c.95,0,1.73.77,1.73,1.73s-.77,1.73-1.73,1.73-1.73-.77-1.73-1.73.77-1.73,1.73-1.73Zm-11.33-45.48c1.77,0,3.2,1.43,3.2,3.2s-1.43,3.2-3.2,3.2-3.2-1.43-3.2-3.2,1.43-3.2,3.2-3.2Zm-17.95,51.61c.86,0,1.55.69,1.55,1.55s-.69,1.55-1.55,1.55-1.55-.69-1.55-1.55.69-1.55,1.55-1.55Zm-6.33-29.29c1.22,0,2.21.99,2.21,2.21s-.99,2.21-2.21,2.21-2.21-.99-2.21-2.21.99-2.21,2.21-2.21Zm-36.65,42.48c1.77,0,3.2,1.43,3.2,3.2s-1.43,3.2-3.2,3.2-3.2-1.43-3.2-3.2,1.43-3.2,3.2-3.2Z"/>
      </g>
      <path class="cls-1" d="m320.38,16.17c9.32,17,1.47,36.79-7.07,52.42-41.38,73.27-172.36,159.7-257.01,161.15-42.25,0-46.21-26.13-34.64-54.99-2.71-.94-6-2.15-9.31-3.53-2.8,6.28-5.03,12.66-6.5,19.12-7.25,35.02,18.21,52.32,50.24,52.68,92.21,1.47,242.99-100.52,268.63-190,3.16-12.12,3.47-26.45-4.34-36.84Z"/>
      <g>
        <path class="cls-1" d="m277.28,124.46l-2.34-2.8c-5.1,5.04-10.49,10.06-16.13,15.03l3,3.59c5.46-5.23,10.62-10.51,15.47-15.83Z"/>
        <path class="cls-1" d="m194.72,59.89l60.09,72.02c5.65-4.98,11.03-10,16.12-15.05l-53.05-63.57c-28.42-35.48-56.76-32.59-76.81-22.46,16.29-1.01,34.96,5.72,53.65,29.06Z"/>
        <path class="cls-1" d="m329.6,187.17l-48.31-57.89c-4.87,5.31-10.03,10.59-15.48,15.81l40.63,48.69s8.88,14.08-4.03,22.96c43.45-3.8,27.19-29.56,27.19-29.56Z"/>
      </g>
      <polygon class="cls-1" points="322.71 21.32 336.37 30.48 328.31 14.5 332.2 0 321.87 8.83 309.27 6.36 316.54 13.83 312.21 27.78 322.71 21.32"/>
    </g>
  </g>
</svg>