<?xml version="1.0" encoding="UTF-8"?>
<svg id="Layer_1" data-name="Layer 1" xmlns="http://www.w3.org/2000/svg" version="1.1" viewBox="0 0 982.6 1000.8">
  <defs>
    <style>
      .cls-1 {
        fill: #fff;
        stroke-width: 0px;
      }
    </style>
  </defs>
  <path class="cls-1" d="M682.9,1.6l-294,201.8c-.7.5-1.5.7-2.3.7H4.1C1.8,204.1,0,205.9,0,208.2v584.5c0,2.3,1.8,4.1,4.1,4.1h382.5c.8,0,1.6.2,2.3.7l294,201.8c1.4,1,3.2,1,4.6,0l109.9-75.4c1.1-.8,1.8-2,1.8-3.4v-168.4c0-1.3.7-2.6,1.8-3.4l90.5-62.1c2.7-1.9,6.4,0,6.4,3.4v157.2c0,3.3,3.7,5.2,6.4,3.4l76.6-52.5c1.1-.8,1.8-2,1.8-3.4V206.2c0-1.3-.7-2.6-1.8-3.4L687.6,1.6c-1.4-1-3.2-1-4.6,0ZM339.3,512.2h0s-21,37.1-21,37.1c-2.5,4.5-8.2,6-12.7,3.5l-62.9-35.7c-2-1.1-4.5-.4-5.6,1.5l-6.9,12.2c-1.1,2-.4,4.5,1.6,5.6s2.7,2,3.8,3.4l55.6,80.4c3.6,5.2,2.3,12.3-2.9,15.9l-31.5,21.8c-5.2,3.6-12.3,2.3-15.9-2.9l-55.6-80.4c-.4-.6-.8-1.3-1.1-2s-1-1.5-1.7-1.9l-1.7-1c-2.4-1.3-5.2,0-5.9,2.6s-3.6,6.6-7.3,7.9l-92.3,32.2c-6,2.1-12.5-1.1-14.6-7l-12.6-36.2c-2.1-6,1.1-12.5,7.1-14.6l78-27.2c.9-.3,1.7-1,2.2-1.8l23.9-42.1c1.8-3.1-1-6.8-4.5-6l-51.4,11.7c-6.7,1.5-13.3-2.7-14.9-9.4l-8.1-35.5c-1.5-6.7,2.7-13.4,9.3-14.9l93.4-21.3c5.2-1.2,10.3,1.1,13.1,5.2s3,2.3,4.9,1.6.4-.2.7-.2c1.6-.5,2.8-1.9,2.9-3.6s.3-2.2.6-3.4l10.9-39.6c3-10.9,14.2-17.3,25.1-14.3l29.9,8.2c10.9,3,17.3,14.2,14.3,25.2l-10.9,39.6c-1.5,5.6-5.2,10-9.9,12.5s-2.8,5.5,0,7.1h0c4.5,2.5,6.6,7.7,5.6,12.5s.5,3.5,2,4.3l63.6,36.1c4.5,2.5,6,8.2,3.5,12.7ZM682.9,701.8l-288.6-198.1c-2.4-1.6-2.4-5.1,0-6.7l288.6-198.1c1.4-1,3.2-1,4.6,0l84.3,57.9c2.7,1.9,6.4,0,6.4-3.4v-163.6c0-3.3,3.7-5.2,6.4-3.4l90.5,62.1c1.1.8,1.8,2,1.8,3.4v174.8c0,1.3.7,2.6,1.8,3.4l97.5,66.9c2.4,1.6,2.4,5.1,0,6.7l-288.6,198.1c-1.4,1-3.2,1-4.6,0Z"/>
</svg>