<?xml version="1.0" encoding="UTF-8"?>
<svg id="Layer_2" data-name="Layer 2" xmlns="http://www.w3.org/2000/svg" viewBox="0 0 837.75 175.99">
  <defs>
    <style>
      .cls-1 {
        fill: #fff;
      }

      .cls-2 {
        fill: none;
      }

      .cls-2, .cls-3 {
        isolation: isolate;
      }

      .cls-3 {
        fill: #010101;
        font-family: Pointless, Pointless;
        font-size: 118.4px;
      }

      .cls-4 {
        fill: #231f20;
      }
    </style>
  </defs>
  <g id="Layer_1-2" data-name="Layer 1">
    <g>
      <rect class="cls-1" x="11.92" y="5.39" width="813.78" height="165.1"/>
      <g>
        <g class="cls-2">
          <text class="cls-3" transform="translate(127.04 150.6)"><tspan x="0" y="0">K</tspan></text>
        </g>
        <g>
          <rect class="cls-4" x="42.99" y="31.09" width="35.26" height="8.82"/>
          <rect class="cls-4" x="624.28" y="82.59" width="26.69" height="17.03"/>
          <rect class="cls-4" x="624.28" y="48.79" width="26.69" height="16.4"/>
          <rect class="cls-4" x="333.17" y="116.28" width="46.77" height="12.07"/>
          <rect class="cls-4" x="466.46" y="96.83" width="47.15" height="27.58"/>
          <rect class="cls-4" x="725.54" y="77.76" width="50.97" height="10.3"/>
          <path class="cls-4" d="m837.15,0H0v175.99h837.75V0h-.6Zm-230.92,30.86h64.19v86.43h-64.19V30.86Zm-310.05,0h19.19v16.14h23.64v-20.97h19.57v20.97h23.39v-16.14h20.08v33.17h-105.87V30.86ZM95.89,109.64h-26.45v52.9h-17.63v-52.9h-26.45v-17.63h70.53v17.63Zm0-52.1h-13.22l13.22,26.45h-17.63l-13.22-26.45h-22.04v26.45h-17.63V13.46h70.53v44.08Zm168.31,108.14H108.84V10.32h155.36v155.36Zm143.58-75.96h-66.6c-1.1,2.03-3.18,5.3-6.23,9.79h64.82v50.08h-19.83v-4.45h-46.77v4.96h-18.94v-26.95c-5.68,4.83-11.48,8.9-17.41,12.2-3.98-6.35-7.88-11.57-11.69-15.63,13.13-6.44,24.23-16.44,33.3-30h-28.47v-17.79h117.82v17.79Zm133.29-36.73h-61.9c-3.73,9.49-7.75,18.05-12.07,25.67h66.73v70.41h-20.21v-6.48h-47.15v7.12h-19.32v-43.85c-5.25,5.51-10.3,9.96-15.12,13.35-4.07-5.51-8.56-10.42-13.47-14.74,8.56-5.51,16.16-12.88,22.81-22.12,6.65-9.23,11.93-19.02,15.82-29.36h-32.28v-18.56h116.17v18.56Zm12.8,57.7c1.86-.42,4.79-1.21,8.77-2.35,3.98-1.14,6.48-1.84,7.5-2.1v-32.92h-13.09v-17.79h13.09v-27.58h18.05v27.58h10.04v17.79h-10.04v27.45l10.55-3.18,3.18,17.54c-12.03,4.58-25.93,9.53-41.69,14.87l-6.35-19.32Zm124.81,33.94h-89.1v-18.05h89.1v18.05Zm127.83-2.1c-2.97,3.77-7.97,5.66-15,5.66h-14.36c-8.39,0-14-1.61-16.84-4.83-2.84-3.22-4.26-9.15-4.26-17.79v-20.84h-12.46c-.51,4.75-1.21,8.83-2.1,12.26-.89,3.43-2.35,6.95-4.39,10.55-2.03,3.6-4.62,6.69-7.75,9.28-3.14,2.58-7.23,5.02-12.27,7.31-5.04,2.29-11.04,4.24-17.98,5.85-.85-2.63-2.37-5.68-4.58-9.15-2.2-3.47-4.32-6.27-6.35-8.39,7.12-1.27,12.92-2.75,17.41-4.45,4.49-1.69,7.94-3.79,10.36-6.29,2.42-2.5,4.09-4.98,5.02-7.44.93-2.46,1.65-5.63,2.16-9.53h-15.76v-43.47h33.43v-8.13h-46.65v-17.03h46.65v-10.17h19.32v10.17h48.3v17.03h-48.3v8.13h35.84v43.47h-20.46v20.59c0,2.29.25,3.71.76,4.26.51.55,1.78.83,3.81.83h9.66c1.95,0,3.24-.99,3.88-2.99.64-1.99,1.08-6.63,1.33-13.92,3.9,3.05,9.7,5.51,17.41,7.37-.93,10.68-2.88,17.9-5.85,21.67Z"/>
        </g>
      </g>
    </g>
  </g>
</svg>