<?xml version="1.0" encoding="UTF-8"?>
<svg id="Layer_2" data-name="Layer 2" xmlns="http://www.w3.org/2000/svg" viewBox="0 0 786.99 155.36">
  <defs>
    <style>
      .cls-1 {
        fill: #fff;
      }
    </style>
  </defs>
  <g id="Layer_1-2" data-name="Layer 1">
    <g>
      <path class="cls-1" d="m399.54,42.66h32.28c-3.9,10.34-9.17,20.12-15.82,29.36-6.65,9.24-14.26,16.61-22.81,22.12,4.91,4.32,9.41,9.24,13.47,14.74,4.83-3.39,9.87-7.84,15.12-13.35v43.85h19.32v-7.12h47.15v6.48h20.21v-70.41h-66.73c4.32-7.63,8.34-16.18,12.07-25.67h61.9v-18.56h-116.17v18.56Zm41.56,43.85h47.15v27.58h-47.15v-27.58Z"/>
      <path class="cls-1" d="m645.06,20.55h-64.19v86.43h64.19V20.55Zm-19.45,68.76h-26.69v-17.03h26.69v17.03Zm0-34.44h-26.69v-16.4h26.69v16.4Z"/>
      <polygon class="cls-1" points="0 99.32 26.45 99.32 26.45 152.22 44.08 152.22 44.08 99.32 70.53 99.32 70.53 81.69 0 81.69 0 99.32"/>
      <path class="cls-1" d="m769.58,103.16c-.25,7.29-.7,11.93-1.33,13.92-.64,1.99-1.93,2.99-3.88,2.99h-9.66c-2.03,0-3.3-.27-3.81-.83-.51-.55-.76-1.97-.76-4.26v-20.59h20.46v-43.47h-35.84v-8.13h48.3v-17.03h-48.3v-10.17h-19.32v10.17h-46.65v17.03h46.65v8.13h-33.43v43.47h15.76c-.51,3.9-1.23,7.08-2.16,9.53-.93,2.46-2.61,4.94-5.02,7.44-2.41,2.5-5.87,4.6-10.36,6.29-4.49,1.7-10.3,3.18-17.41,4.45,2.03,2.12,4.15,4.92,6.35,8.39,2.2,3.47,3.73,6.52,4.58,9.15,6.95-1.61,12.94-3.56,17.98-5.85,5.04-2.29,9.13-4.72,12.27-7.31,3.13-2.58,5.72-5.68,7.75-9.28,2.03-3.6,3.5-7.12,4.39-10.55s1.59-7.52,2.1-12.27h12.46v20.84c0,8.64,1.42,14.57,4.26,17.79,2.84,3.22,8.45,4.83,16.84,4.83h14.36c7.03,0,12.03-1.89,15-5.66,2.97-3.77,4.91-10.99,5.85-21.67-7.71-1.86-13.52-4.32-17.41-7.37Zm-69.4-25.42v-10.3h50.97v10.3h-50.97Z"/>
      <path class="cls-1" d="m573.38,87.27l-10.55,3.18v-27.45h10.04v-17.79h-10.04v-27.58h-18.05v27.58h-13.09v17.79h13.09v32.92c-1.02.25-3.52.95-7.5,2.1-3.98,1.14-6.91,1.93-8.77,2.35l6.35,19.32c15.76-5.34,29.66-10.3,41.69-14.87l-3.18-17.54Z"/>
      <rect class="cls-1" x="564.22" y="116.25" width="89.1" height="18.05"/>
      <path class="cls-1" d="m83.48,155.36h155.36V0H83.48v155.36ZM101.68,21.88h29.6v44.4h51.8l7.4-7.4V21.88h29.6v44.4l-14.8,14.8,14.8,14.8v44.4h-29.6v-37l-7.4-7.4h-51.8v44.4h-29.6V21.88Z"/>
      <path class="cls-1" d="m0,73.67h17.63v-26.45h22.04l13.22,26.45h17.63l-13.22-26.45h13.22V3.14H0v70.53ZM17.63,20.77h35.26v8.82H17.63v-8.82Z"/>
      <polygon class="cls-1" points="376.7 20.55 356.61 20.55 356.61 36.69 333.23 36.69 333.23 15.72 313.65 15.72 313.65 36.69 290.01 36.69 290.01 20.55 270.82 20.55 270.82 53.72 376.7 53.72 376.7 20.55"/>
      <path class="cls-1" d="m264.59,79.39h28.47c-9.07,13.56-20.17,23.56-33.3,30,3.81,4.07,7.71,9.28,11.69,15.63,5.93-3.3,11.73-7.37,17.41-12.2v26.95h18.94v-4.96h46.77v4.45h19.83v-50.08h-64.82c3.05-4.49,5.13-7.75,6.23-9.79h66.6v-17.79h-117.82v17.79Zm43.21,26.56h46.77v12.07h-46.77v-12.07Z"/>
    </g>
  </g>
</svg>