<?xml version="1.0" encoding="UTF-8"?>
<svg id="Layer_1" data-name="Layer 1" xmlns="http://www.w3.org/2000/svg" viewBox="0 0 2709 416">
  <defs>
    <style>
      .cls-1 {
        fill: #fff;
        stroke: #fff;
        stroke-miterlimit: 10;
        stroke-width: 4px;
      }
    </style>
  </defs>
  <path class="cls-1" d="m210.93,261.33V64.32h197.01v123.13h-36.94l36.94,73.88h-49.25l-36.94-73.88h-61.56v73.88h-49.25Zm147.76-123.13v-24.63h-98.5v24.63h98.5Z"/>
  <path class="cls-1" d="m427.56,261.33V64.32h197.01v197.01h-197.01Zm147.76-49.25v-98.5h-98.5v98.5h98.5Z"/>
  <path class="cls-1" d="m644.19,261.33V64.32h197.01v49.25h-147.76v98.5h147.76v49.25h-197.01Z"/>
  <path class="cls-1" d="m860.82,261.33V64.32h49.25v73.88h86.19l12.31-12.31v-61.56h49.25v73.88l-24.63,24.63,24.63,24.63v73.88h-49.25v-61.56l-12.31-12.31h-86.19v73.88h-49.25Z"/>
  <path class="cls-1" d="m1151.33,261.33v-49.25l-73.88-73.88v-73.88h49.25v49.25l49.25,49.25,49.25-49.25v-49.25h49.25v73.88l-73.88,73.88v49.25h-49.25Z"/>
  <path class="cls-1" d="m1367.96,261.33V113.58h-73.88v-49.25h197.01v49.25h-73.88v147.76h-49.25Z"/>
  <path class="cls-1" d="m1510.72,261.33V64.32h197.01v197.01h-49.25v-73.88h-98.5v73.88h-49.25Zm147.76-123.13v-24.63h-98.5v24.63h98.5Z"/>
  <path class="cls-1" d="m1727.35,261.33V64.32h49.25l98.5,49.25v-49.25h49.25v197.01h-49.25v-98.5l-98.5-49.25v147.76h-49.25Z"/>
  <path class="cls-1" d="m1943.98,261.33V64.32h49.25v73.88h86.19l12.31-12.31v-61.56h49.25v73.88l-24.63,24.63,24.63,24.63v73.88h-49.25v-61.56l-12.31-12.31h-86.19v73.88h-49.25Z"/>
  <path class="cls-1" d="m2160.61,261.33V64.32h197.01v49.25h-147.76v24.63h147.76v49.25h-147.76v24.63h147.76v49.25h-197.01Z"/>
  <path class="cls-1" d="m2377.25,261.33V64.32h197.01v123.13h-36.94l36.94,73.88h-49.25l-36.94-73.88h-61.57v73.88h-49.25Zm147.76-123.13v-24.63h-98.5v24.63h98.5Z"/>
</svg>