<svg version="1.1" id="Layer_1" xmlns="http://www.w3.org/2000/svg" xmlns:xlink="http://www.w3.org/1999/xlink" x="0px" y="0px"
	 width="100%" viewBox="0 0 400 400" enable-background="new 0 0 400 400" xml:space="preserve">
<path fill="#010101" opacity="1.000000" stroke="none" 
	d="
M1.000000,147.000000 
	C1.000000,98.015152 1.000000,49.530308 1.000000,1.022731 
	C134.276520,1.022731 267.553040,1.022731 400.914795,1.022731 
	C400.914795,134.234818 400.914795,267.469696 400.914795,400.852295 
	C267.666779,400.852295 134.333420,400.852295 1.000000,400.852295 
	C1.000000,316.447052 1.000000,231.973526 1.000000,147.000000 
M206.817673,259.888092 
	C206.889786,262.926208 206.961899,265.964355 206.835281,269.900208 
	C206.906235,273.267212 206.977203,276.634247 206.838821,280.910095 
	C206.916885,285.276825 206.994934,289.643585 206.865921,294.921356 
	C206.946579,299.616974 207.027252,304.312592 206.897034,309.912354 
	C206.977295,313.944946 207.057541,317.977570 206.924850,322.916016 
	C207.005585,327.277039 207.086319,331.638092 206.949753,336.885742 
	C207.028580,339.926331 207.107422,342.966919 206.972778,346.921478 
	C207.059830,352.946838 207.146881,358.972198 207.006226,365.910400 
	C207.006226,373.180023 207.006226,380.449615 207.006226,388.048004 
	C229.195023,386.693665 250.235123,383.140381 270.996399,374.501099 
	C278.668030,370.679871 286.339661,366.858643 294.712921,362.944611 
	C300.869781,358.784882 307.026642,354.625183 313.841400,350.215942 
	C318.611023,346.166107 323.380615,342.116241 328.775818,337.848419 
	C331.542786,334.983917 334.309723,332.119385 337.700714,328.971802 
	C340.855957,325.167847 344.011200,321.363861 347.771179,317.199097 
	C350.501251,313.425934 353.231323,309.652740 356.545044,305.554016 
	C359.378113,300.712006 362.211182,295.869995 365.596680,290.613647 
	C367.419128,286.796692 369.241577,282.979736 371.633728,278.735596 
	C373.420105,274.157257 375.206482,269.578918 377.573761,264.585388 
	C378.721832,260.724976 379.869904,256.864594 381.387604,252.350693 
	C382.336731,247.930817 383.285858,243.510941 384.810791,238.552887 
	C385.881165,231.539597 387.674133,224.547989 387.885254,217.508926 
	C388.496735,197.120987 388.394135,176.796539 383.371155,156.714233 
	C373.118744,115.724075 351.656036,81.859222 319.066223,55.300991 
	C290.728851,32.208130 258.235992,18.362043 221.603745,14.833286 
	C202.185516,12.962739 182.817352,13.160888 163.692535,17.169273 
	C118.469994,26.647491 81.527351,49.675323 52.946606,85.976707 
	C30.126274,114.961609 17.142944,148.076096 14.230543,184.683624 
	C12.710236,203.793182 13.060586,223.152786 18.160685,242.768448 
	C19.115883,246.179688 20.071083,249.590942 21.059797,253.793076 
	C24.036680,261.532227 27.013561,269.271393 30.022861,277.737000 
	C32.169178,281.888580 34.315491,286.040192 36.637989,290.905853 
	C39.107025,294.894501 41.576061,298.883118 44.216572,303.546906 
	C46.548546,306.681824 48.880520,309.816711 51.421535,313.579071 
	C54.303860,316.997009 57.186184,320.414948 60.279591,324.479950 
	C63.443871,327.685364 66.608147,330.890808 70.035782,334.724884 
	C76.301651,339.960510 82.567513,345.196167 89.160301,350.994019 
	C97.774490,356.283722 106.388680,361.573456 115.526573,367.344147 
	C126.016548,371.503784 136.506531,375.663452 147.614365,380.254883 
	C163.000763,384.860504 178.719009,387.254608 194.779846,387.919922 
	C194.779846,383.885681 194.779846,380.438263 194.986420,376.111237 
	C194.922073,373.407867 194.857727,370.704529 195.007156,367.120972 
	C194.941895,364.414154 194.876633,361.707367 195.018661,358.096069 
	C194.958954,354.065796 194.899246,350.035553 195.048157,345.107330 
	C194.985474,341.738190 194.922791,338.369019 195.063919,334.097809 
	C195.002197,330.400848 194.940460,326.703888 195.083801,322.174530 
	C195.025833,317.785553 194.967880,313.396576 195.112167,308.093445 
	C195.054794,303.398071 194.997421,298.702728 195.139435,293.092682 
	C195.079208,288.395599 195.018982,283.698547 195.152786,278.091888 
	C195.089188,274.060516 195.025589,270.029175 195.163681,265.080292 
	C195.103058,258.720245 195.042419,252.360184 195.185806,245.129990 
	C195.269348,237.437714 195.269348,237.437714 187.655014,235.180496 
	C184.172577,233.112320 180.277603,231.515152 177.281921,228.891251 
	C166.548004,219.489456 162.160248,207.728195 164.989685,193.444763 
	C169.031265,173.042267 189.702225,160.071747 210.367584,165.136963 
	C230.277130,170.016953 242.322205,191.775375 236.281143,211.536636 
	C232.277420,224.633423 223.024399,232.206650 209.965271,236.911469 
	C208.902512,238.185257 207.150421,239.348648 206.924973,240.756500 
	C206.496872,243.430008 206.942780,246.243439 206.813553,249.886688 
	C206.884216,252.924225 206.954895,255.961761 206.817673,259.888092 
z"/>
<path fill="#FBFBFB" opacity="1.000000" stroke="none" 
	d="
M18.135426,241.996307 
	C13.060586,223.152786 12.710236,203.793182 14.230543,184.683624 
	C17.142944,148.076096 30.126274,114.961609 52.946606,85.976707 
	C81.527351,49.675323 118.469994,26.647491 163.692535,17.169273 
	C182.817352,13.160888 202.185516,12.962739 221.603745,14.833286 
	C258.235992,18.362043 290.728851,32.208130 319.066223,55.300991 
	C351.656036,81.859222 373.118744,115.724075 383.371155,156.714233 
	C388.394135,176.796539 388.496735,197.120987 387.885254,217.508926 
	C387.674133,224.547989 385.881165,231.539597 384.042297,238.797760 
	C378.263611,239.027603 373.253387,239.012573 368.201233,238.585236 
	C373.158997,214.539413 373.727448,190.797592 368.814789,167.141022 
	C360.418304,126.708496 340.353058,93.119133 307.897614,67.442299 
	C266.369690,34.587868 219.113831,23.441685 167.333939,33.318073 
	C126.757774,41.057484 93.519463,61.816525 67.490349,93.959618 
	C44.567749,122.266510 32.609592,154.895264 30.088207,190.993271 
	C28.916885,207.762787 30.740528,224.429092 34.089165,240.997162 
	C28.489502,241.433365 23.312464,241.714828 18.135426,241.996307 
z"/>
<path fill="#FCFBFB" opacity="1.000000" stroke="none" 
	d="
M210.789368,236.905518 
	C223.024399,232.206650 232.277420,224.633423 236.281143,211.536636 
	C242.322205,191.775375 230.277130,170.016953 210.367584,165.136963 
	C189.702225,160.071747 169.031265,173.042267 164.989685,193.444763 
	C162.160248,207.728195 166.548004,219.489456 177.281921,228.891251 
	C180.277603,231.515152 184.172577,233.112320 187.651520,235.783966 
	C185.120270,236.925232 182.600128,237.880630 180.063461,237.926804 
	C170.359833,238.103378 160.650879,237.987564 151.009857,237.626755 
	C155.351776,232.263367 155.546295,227.467529 152.123856,221.478928 
	C147.109848,212.705399 146.618164,202.509384 148.306732,192.936081 
	C153.556519,163.172501 178.875366,143.661316 209.119263,148.339981 
	C244.325302,153.786301 262.922852,189.218719 250.342377,220.376266 
	C247.644409,227.058258 246.296432,232.271179 250.617752,237.980515 
	C239.100906,237.993057 228.057892,238.052628 217.016373,237.951080 
	C214.937668,237.931961 212.864883,237.270554 210.789368,236.905518 
z"/>
<path fill="#F96DD9" opacity="1.000000" stroke="none" 
	d="
M270.243256,374.640045 
	C250.235123,383.140381 229.195023,386.693665 207.006226,388.048004 
	C207.006226,380.449615 207.006226,373.180023 207.496002,365.457520 
	C212.669754,364.895782 217.353714,364.786987 222.145935,364.759857 
	C222.254211,364.841553 222.480423,364.986237 222.590332,365.406708 
	C222.783447,367.429047 222.866653,369.030914 222.959564,370.819916 
	C225.514908,370.584045 227.758148,370.376984 230.023117,370.574524 
	C230.813919,371.647217 231.591827,372.904846 232.350708,372.893463 
	C241.274033,372.759674 250.198273,372.166321 259.113953,372.290466 
	C262.833923,372.342255 266.534088,373.813934 270.243256,374.640045 
z"/>
<path fill="#FB75DC" opacity="1.000000" stroke="none" 
	d="
M194.793381,368.001160 
	C194.857727,370.704529 194.922073,373.407867 194.428925,376.551605 
	C189.232300,376.995819 184.593094,376.983551 179.954041,377.007141 
	C172.083618,377.047150 164.200562,376.868103 156.349197,377.281708 
	C153.195755,377.447815 150.111984,378.936401 146.996506,379.823120 
	C136.506531,375.663452 126.016548,371.503784 115.344376,366.737885 
	C117.075897,365.421509 118.960327,364.213409 120.909058,364.098816 
	C125.886414,363.806122 130.901932,364.175934 135.881836,363.905731 
	C137.627716,363.811005 139.314270,362.622559 141.409882,361.928406 
	C147.967712,363.796967 154.089157,365.883575 160.335953,367.479645 
	C165.712326,368.853333 171.213211,369.795685 176.708298,370.586884 
	C177.506378,370.701782 178.579071,368.909454 179.958069,367.999451 
	C185.192108,367.999878 189.992737,368.000519 194.793381,368.001160 
z"/>
<path fill="#FB78DD" opacity="1.000000" stroke="none" 
	d="
M270.619812,374.570557 
	C266.534088,373.813934 262.833923,372.342255 259.113953,372.290466 
	C250.198273,372.166321 241.274033,372.759674 232.350708,372.893463 
	C231.591827,372.904846 230.813919,371.647217 230.399353,370.423401 
	C243.168610,366.278412 255.583359,362.689117 268.102905,359.486572 
	C269.721252,360.248840 271.228149,360.913330 272.749573,360.948334 
	C278.388947,361.078003 284.038757,360.862976 289.671692,361.093475 
	C291.142303,361.153687 292.566040,362.358368 294.011322,363.037415 
	C286.339661,366.858643 278.668030,370.679871 270.619812,374.570557 
z"/>
<path fill="#F983DE" opacity="1.000000" stroke="none" 
	d="
M141.027893,361.933533 
	C139.314270,362.622559 137.627716,363.811005 135.881836,363.905731 
	C130.901932,364.175934 125.886414,363.806122 120.909058,364.098816 
	C118.960327,364.213409 117.075897,365.421509 115.082527,366.497375 
	C106.388680,361.573456 97.774490,356.283722 89.230576,350.362366 
	C94.456108,349.154724 99.628502,348.693817 104.755959,347.930878 
	C106.248283,347.708832 107.612206,346.623779 109.382721,345.988708 
	C120.162933,351.339905 130.595413,356.636719 141.027893,361.933533 
z"/>
<path fill="#FB95E3" opacity="1.000000" stroke="none" 
	d="
M109.034988,345.934296 
	C107.612206,346.623779 106.248283,347.708832 104.755959,347.930878 
	C99.628502,348.693817 94.456108,349.154724 89.067108,350.081238 
	C82.567513,345.196167 76.301651,339.960510 70.386215,334.381042 
	C77.458656,333.543854 84.180656,333.050476 91.211708,332.663788 
	C92.964508,332.830597 94.408264,332.890717 96.328659,332.965027 
	C100.572845,332.986969 104.359230,332.781647 108.098183,333.112488 
	C109.499107,333.236420 110.789650,334.607819 112.085258,335.748962 
	C111.004738,337.881561 109.696976,339.580780 109.028458,341.502411 
	C108.570229,342.819550 109.001396,344.446075 109.034988,345.934296 
z"/>
<path fill="#FDF3FA" opacity="1.000000" stroke="none" 
	d="
M210.377319,236.908493 
	C212.864883,237.270554 214.937668,237.931961 217.016373,237.951080 
	C228.057892,238.052628 239.100906,237.993057 250.920380,238.163177 
	C253.399475,241.468872 255.101578,244.600662 256.337097,247.819870 
	C253.780624,248.271362 251.700256,248.707840 249.598724,248.982697 
	C246.383163,249.403259 243.153030,249.712326 239.659912,249.862823 
	C237.878937,247.218201 236.367142,244.779495 235.154282,242.823029 
	C230.454483,245.096390 226.257675,247.126465 221.782745,248.839264 
	C216.678314,248.680908 211.852005,248.839844 207.025681,248.998779 
	C206.942780,246.243439 206.496872,243.430008 206.924973,240.756500 
	C207.150421,239.348648 208.902512,238.185257 210.377319,236.908493 
z"/>
<path fill="#FADEF4" opacity="1.000000" stroke="none" 
	d="
M29.990444,277.010559 
	C27.013561,269.271393 24.036680,261.532227 21.463501,253.383591 
	C26.974722,252.631973 32.082237,252.289841 37.381317,252.235718 
	C40.414577,259.949982 43.256268,267.376251 45.866249,275.127014 
	C40.419838,275.971222 35.205139,276.490875 29.990444,277.010559 
z"/>
<path fill="#FB90E2" opacity="1.000000" stroke="none" 
	d="
M328.150238,338.066406 
	C323.380615,342.116241 318.611023,346.166107 313.319763,349.993561 
	C310.680450,349.289276 308.550446,348.855377 306.447601,348.315826 
	C301.564514,347.062775 296.203522,350.723236 291.812683,346.550415 
	C294.279999,345.193695 294.868500,343.883240 293.282166,341.621979 
	C291.871918,339.611664 290.908813,337.287659 290.228119,335.072388 
	C296.047852,334.614990 301.387817,334.187347 306.980835,333.934753 
	C307.828613,334.175323 308.423309,334.240845 309.037537,334.702637 
	C310.517670,335.732941 311.934235,336.758881 313.447021,336.928925 
	C318.329041,337.477631 323.246460,337.711334 328.150238,338.066406 
z"/>
<path fill="#F983DE" opacity="1.000000" stroke="none" 
	d="
M291.583832,346.855591 
	C296.203522,350.723236 301.564514,347.062775 306.447601,348.315826 
	C308.550446,348.855377 310.680450,349.289276 312.990784,350.118317 
	C307.026642,354.625183 300.869781,358.784882 294.362122,362.991028 
	C292.566040,362.358368 291.142303,361.153687 289.671692,361.093475 
	C284.038757,360.862976 278.388947,361.078003 272.749573,360.948334 
	C271.228149,360.913330 269.721252,360.248840 268.366577,359.242737 
	C276.211578,354.693329 283.897705,350.774475 291.583832,346.855591 
z"/>
<path fill="#F76AD6" opacity="1.000000" stroke="none" 
	d="
M147.305435,380.039001 
	C150.111984,378.936401 153.195755,377.447815 156.349197,377.281708 
	C164.200562,376.868103 172.083618,377.047150 179.954041,377.007141 
	C184.593094,376.983551 189.232300,376.995819 194.325653,376.991425 
	C194.779846,380.438263 194.779846,383.885681 194.779846,387.919922 
	C178.719009,387.254608 163.000763,384.860504 147.305435,380.039001 
z"/>
<path fill="#FDF3FA" opacity="1.000000" stroke="none" 
	d="
M150.943924,237.980911 
	C160.650879,237.987564 170.359833,238.103378 180.063461,237.926804 
	C182.600128,237.880630 185.120270,236.925232 187.883301,236.064545 
	C195.269348,237.437714 195.269348,237.437714 194.671143,245.510803 
	C187.657928,244.278839 181.263596,244.477646 174.652924,246.956116 
	C172.001190,245.427032 169.699066,243.935211 167.296539,242.378342 
	C165.758484,244.548523 164.439529,246.409561 162.847900,247.934723 
	C158.783600,247.399689 154.969528,247.380753 151.211487,246.912231 
	C149.718857,246.726151 148.350464,245.543472 146.972443,244.479141 
	C148.327560,242.089478 149.635742,240.035187 150.943924,237.980911 
z"/>
<path fill="#FBE9F7" opacity="1.000000" stroke="none" 
	d="
M175.002548,246.993408 
	C181.263596,244.477646 187.657928,244.278839 194.569122,245.945892 
	C195.042419,252.360184 195.103058,258.720245 194.652252,265.482910 
	C189.227310,265.589905 184.313797,265.294312 179.301697,264.541016 
	C179.191010,261.114227 178.908722,258.115173 179.233887,255.183502 
	C179.657562,251.363815 178.795181,248.497253 175.002548,246.993408 
z"/>
<path fill="#FD87E2" opacity="1.000000" stroke="none" 
	d="
M222.037674,364.678162 
	C217.353714,364.786987 212.669754,364.895782 207.609863,365.001099 
	C207.146881,358.972198 207.059830,352.946838 207.528900,346.460754 
	C210.740097,346.001923 213.395401,345.981262 216.050140,346.011017 
	C220.136810,346.056793 222.524506,347.493317 222.096603,352.239685 
	C221.725677,356.354187 222.031158,360.529633 222.037674,364.678162 
z"/>
<path fill="#FAA3E6" opacity="1.000000" stroke="none" 
	d="
M90.902657,332.557098 
	C84.180656,333.050476 77.458656,333.543854 70.254539,334.066711 
	C66.608147,330.890808 63.443871,327.685364 60.378426,323.829407 
	C62.340958,322.785889 64.187836,322.246063 66.071823,322.030273 
	C70.134972,321.564880 74.217186,321.265900 78.595230,321.019104 
	C82.900131,324.945251 86.901398,328.751160 90.902657,332.557098 
z"/>
<path fill="#FAA3E6" opacity="1.000000" stroke="none" 
	d="
M347.166443,317.559906 
	C344.011200,321.363861 340.855957,325.167847 337.296783,328.699768 
	C335.440643,327.952942 334.003571,327.130707 332.533478,327.066589 
	C327.568024,326.850159 322.590820,326.902740 317.769165,326.544983 
	C321.732086,322.396667 325.543976,318.555878 329.859222,314.790894 
	C334.646454,314.912354 338.947418,314.757233 343.204437,315.119019 
	C344.584290,315.236267 345.849060,316.707825 347.166443,317.559906 
z"/>
<path fill="#FCC9F0" opacity="1.000000" stroke="none" 
	d="
M194.958755,279.001465 
	C195.018982,283.698547 195.079208,288.395599 194.582947,293.547516 
	C189.163528,294.336395 184.300613,294.670441 179.336456,294.546570 
	C179.295029,289.058533 179.354843,284.028442 179.820526,278.992798 
	C185.137177,278.992004 190.047974,278.996735 194.958755,279.001465 
z"/>
<path fill="#FEB9EE" opacity="1.000000" stroke="none" 
	d="
M179.437683,295.004486 
	C184.300613,294.670441 189.163528,294.336395 194.483246,294.004852 
	C194.997421,298.702728 195.054794,303.398071 194.595886,308.558838 
	C189.209137,309.350891 184.338669,309.677551 179.364471,309.547546 
	C179.319748,304.395386 179.378723,299.699951 179.437683,295.004486 
z"/>
<path fill="#FCC9F0" opacity="1.000000" stroke="none" 
	d="
M371.064056,279.162781 
	C369.241577,282.979736 367.419128,286.796692 364.851471,290.811157 
	C358.635773,290.643372 353.165283,290.278015 347.785278,289.560608 
	C350.196991,285.123779 352.518219,281.039001 355.249695,277.009766 
	C358.341858,277.125092 361.054108,276.957764 363.696960,277.310547 
	C366.190643,277.643402 368.611298,278.523438 371.064056,279.162781 
z"/>
<path fill="#FAABE7" opacity="1.000000" stroke="none" 
	d="
M347.468811,317.379517 
	C345.849060,316.707825 344.584290,315.236267 343.204437,315.119019 
	C338.947418,314.757233 334.646454,314.912354 329.978882,314.539307 
	C329.763336,314.133270 329.931549,314.054596 330.305664,313.852722 
	C330.759491,313.505249 330.908844,313.227905 331.043274,312.570496 
	C333.755035,309.165253 336.383209,306.087036 339.477417,303.006073 
	C343.867157,303.004364 347.817108,302.745209 351.701172,303.137848 
	C353.198334,303.289215 354.545746,304.921814 355.961395,305.879578 
	C353.231323,309.652740 350.501251,313.425934 347.468811,317.379517 
z"/>
<path fill="#FBB7EB" opacity="1.000000" stroke="none" 
	d="
M356.253235,305.716797 
	C354.545746,304.921814 353.198334,303.289215 351.701172,303.137848 
	C347.817108,302.745209 343.867157,303.004364 339.560425,302.671204 
	C342.016510,298.196930 344.855652,294.054810 347.694794,289.912689 
	C353.165283,290.278015 358.635773,290.643372 364.575256,291.018372 
	C362.211182,295.869995 359.378113,300.712006 356.253235,305.716797 
z"/>
<path fill="#FCC9F0" opacity="1.000000" stroke="none" 
	d="
M30.006653,277.373779 
	C35.205139,276.490875 40.419838,275.971222 46.168690,275.308289 
	C49.068798,279.790497 51.434753,284.416016 53.384796,289.027252 
	C47.466518,289.405914 41.964165,289.798859 36.461807,290.191772 
	C34.315491,286.040192 32.169178,281.888580 30.006653,277.373779 
z"/>
<path fill="#FEB9EE" opacity="1.000000" stroke="none" 
	d="
M207.107910,309.008240 
	C207.027252,304.312592 206.946579,299.616974 207.430115,294.462036 
	C212.860001,294.002441 217.725708,294.002136 222.693329,294.457642 
	C222.719528,299.609558 222.643768,304.305725 222.128555,308.998657 
	C216.828705,308.999695 211.968307,309.003967 207.107910,309.008240 
z"/>
<path fill="#FADEF4" opacity="1.000000" stroke="none" 
	d="
M381.018005,253.004181 
	C379.869904,256.864594 378.721832,260.724976 376.816528,264.791809 
	C370.753662,264.999176 365.447998,265.000183 360.138550,264.625610 
	C361.697815,260.150024 363.260834,256.050049 365.298157,251.966339 
	C370.854279,252.323135 375.936157,252.663651 381.018005,253.004181 
z"/>
<path fill="#FB95E3" opacity="1.000000" stroke="none" 
	d="
M317.618134,326.852478 
	C322.590820,326.902740 327.568024,326.850159 332.533478,327.066589 
	C334.003571,327.130707 335.440643,327.952942 336.984772,328.841309 
	C334.309723,332.119385 331.542786,334.983917 328.463013,337.957397 
	C323.246460,337.711334 318.329041,337.477631 313.447021,336.928925 
	C311.934235,336.758881 310.517670,335.732941 309.048889,334.573975 
	C309.040771,334.049072 309.298767,334.057098 309.419189,333.988892 
	C309.697052,333.818359 309.822083,333.685516 310.121918,333.231506 
	C312.758789,330.911346 315.188477,328.881927 317.618134,326.852478 
z"/>
<path fill="#FCC9F0" opacity="1.000000" stroke="none" 
	d="
M222.591400,294.001862 
	C217.725708,294.002136 212.860001,294.002441 207.533661,294.006531 
	C206.994934,289.643585 206.916885,285.276825 207.405823,280.455017 
	C212.850403,279.998138 217.727982,279.996368 222.708603,280.449402 
	C222.738235,285.270081 222.664825,289.635986 222.591400,294.001862 
z"/>
<path fill="#FAD4F1" opacity="1.000000" stroke="none" 
	d="
M360.142334,265.001190 
	C365.447998,265.000183 370.753662,264.999176 376.526123,264.999390 
	C375.206482,269.578918 373.420105,274.157257 371.348877,278.949188 
	C368.611298,278.523438 366.190643,277.643402 363.696960,277.310547 
	C361.054108,276.957764 358.341858,277.125092 355.302063,276.641724 
	C356.676910,272.479187 358.409607,268.740204 360.142334,265.001190 
z"/>
<path fill="#FBE9F7" opacity="1.000000" stroke="none" 
	d="
M381.202820,252.677429 
	C375.936157,252.663651 370.854279,252.323135 365.243866,251.558380 
	C365.891266,247.088608 367.067230,243.043076 368.243195,238.997528 
	C373.253387,239.012573 378.263611,239.027603 383.754395,239.066849 
	C383.285858,243.510941 382.336731,247.930817 381.202820,252.677429 
z"/>
<path fill="#FEACEB" opacity="1.000000" stroke="none" 
	d="
M207.002472,309.460297 
	C211.968307,309.003967 216.828705,308.999695 222.232574,309.452576 
	C222.698853,314.274261 222.621643,318.638794 222.111679,322.999847 
	C216.831879,322.667664 211.984833,322.338898 207.137787,322.010162 
	C207.057541,317.977570 206.977295,313.944946 207.002472,309.460297 
z"/>
<path fill="#FAC0EC" opacity="1.000000" stroke="none" 
	d="
M36.549896,290.548828 
	C41.964165,289.798859 47.466518,289.405914 53.671322,289.224335 
	C56.833439,293.293945 59.293110,297.152222 61.303062,301.005463 
	C55.250591,301.624207 49.647842,302.247955 44.045094,302.871765 
	C41.576061,298.883118 39.107025,294.894501 36.549896,290.548828 
z"/>
<path fill="#FAABE7" opacity="1.000000" stroke="none" 
	d="
M78.291595,320.898865 
	C74.217186,321.265900 70.134972,321.564880 66.071823,322.030273 
	C64.187836,322.246063 62.340958,322.785889 60.272881,323.505859 
	C57.186184,320.414948 54.303860,316.997009 51.716560,313.210632 
	C55.734604,312.561798 59.501629,312.532196 63.161213,311.890198 
	C64.871017,311.590271 66.373055,310.105988 68.262558,309.304321 
	C71.801109,313.266357 75.046349,317.082611 78.291595,320.898865 
z"/>
<path fill="#FFD9F6" opacity="1.000000" stroke="none" 
	d="
M195.055771,278.546692 
	C190.047974,278.996735 185.137177,278.992004 179.722992,278.536804 
	C179.279800,273.723785 179.340042,269.361267 179.400284,264.998718 
	C184.313797,265.294312 189.227310,265.589905 194.551422,265.941650 
	C195.025589,270.029175 195.089188,274.060516 195.055771,278.546692 
z"/>
<path fill="#FF9EE9" opacity="1.000000" stroke="none" 
	d="
M207.031326,322.463074 
	C211.984833,322.338898 216.831879,322.667664 222.217194,323.451904 
	C222.678497,327.937195 222.601532,331.966980 222.087982,335.994751 
	C216.823288,335.994843 211.995163,335.996979 207.167053,335.999084 
	C207.086319,331.638092 207.005585,327.277039 207.031326,322.463074 
z"/>
<path fill="#FEACEB" opacity="1.000000" stroke="none" 
	d="
M179.468170,310.004211 
	C184.338669,309.677551 189.209137,309.350891 194.494766,309.015900 
	C194.967880,313.396576 195.025833,317.785553 194.526703,322.587250 
	C189.145569,323.334656 184.321533,323.669342 179.391113,323.549286 
	C179.345886,318.731110 179.407028,314.367645 179.468170,310.004211 
z"/>
<path fill="#FBB7EB" opacity="1.000000" stroke="none" 
	d="
M67.969269,309.158508 
	C66.373055,310.105988 64.871017,311.590271 63.161213,311.890198 
	C59.501629,312.532196 55.734604,312.561798 51.612038,312.896912 
	C48.880520,309.816711 46.548546,306.681824 44.130833,303.209320 
	C49.647842,302.247955 55.250591,301.624207 61.475487,301.104309 
	C62.097637,301.208191 62.125477,301.604858 62.160721,301.868958 
	C62.400600,302.415375 62.605228,302.697723 62.966072,303.289795 
	C64.737946,305.452515 66.353607,307.305511 67.969269,309.158508 
z"/>
<path fill="#FD87E2" opacity="1.000000" stroke="none" 
	d="
M194.839539,346.005280 
	C194.899246,350.035553 194.958954,354.065796 194.462372,358.546021 
	C189.111145,358.996460 184.316208,358.996948 179.429993,358.542297 
	C179.398926,354.058350 179.459167,350.029602 179.909576,345.998962 
	C185.146347,345.999847 189.992935,346.002563 194.839539,346.005280 
z"/>
<path fill="#FF9EE9" opacity="1.000000" stroke="none" 
	d="
M179.497482,324.004028 
	C184.321533,323.669342 189.145569,323.334656 194.424179,323.003448 
	C194.940460,326.703888 195.002197,330.400848 194.544342,334.548401 
	C189.187561,335.331940 184.350342,335.664886 179.408630,335.547150 
	C179.368576,331.398987 179.433029,327.701508 179.497482,324.004028 
z"/>
<path fill="#FFD9F6" opacity="1.000000" stroke="none" 
	d="
M222.605545,279.994568 
	C217.727982,279.996368 212.850403,279.998138 207.510498,280.000580 
	C206.977203,276.634247 206.906235,273.267212 207.353577,269.439423 
	C212.789032,268.653137 217.706207,268.327637 222.719788,268.453796 
	C222.745972,272.601868 222.675751,276.298218 222.605545,279.994568 
z"/>
<path fill="#FB95E3" opacity="1.000000" stroke="none" 
	d="
M207.058411,336.442413 
	C211.995163,335.996979 216.823288,335.994843 222.196442,336.452148 
	C222.654465,346.269806 222.567444,355.628021 222.480423,364.986237 
	C222.480423,364.986237 222.254211,364.841553 222.145935,364.759857 
	C222.031158,360.529633 221.725677,356.354187 222.096603,352.239685 
	C222.524506,347.493317 220.136810,346.056793 216.050140,346.011017 
	C213.395401,345.981262 210.740097,346.001923 207.635651,346.003784 
	C207.107422,342.966919 207.028580,339.926331 207.058411,336.442413 
z"/>
<path fill="#FDF3FA" opacity="1.000000" stroke="none" 
	d="
M37.189751,251.947723 
	C32.082237,252.289841 26.974722,252.631973 21.446745,252.988144 
	C20.071083,249.590942 19.115883,246.179688 18.148056,242.382370 
	C23.312464,241.714828 28.489502,241.433365 34.214382,241.289154 
	C35.571396,244.933533 36.380573,248.440613 37.189751,251.947723 
z"/>
<path fill="#FB95E3" opacity="1.000000" stroke="none" 
	d="
M179.513123,335.997833 
	C184.350342,335.664886 189.187561,335.331940 194.442444,334.999451 
	C194.922791,338.369019 194.985474,341.738190 194.943848,345.556305 
	C189.992935,346.002563 185.146347,345.999847 179.807556,345.553894 
	C179.381287,342.073029 179.447205,339.035431 179.513123,335.997833 
z"/>
<path fill="#FADEF4" opacity="1.000000" stroke="none" 
	d="
M222.623383,268.002136 
	C217.706207,268.327637 212.789032,268.653137 207.452942,268.990540 
	C206.961899,265.964355 206.889786,262.926208 207.341156,259.433777 
	C212.788498,258.651611 217.712357,258.323761 222.734741,258.441467 
	C222.763290,261.925354 222.693344,264.963745 222.623383,268.002136 
z"/>
<path fill="#FBE9F7" opacity="1.000000" stroke="none" 
	d="
M222.636215,257.995911 
	C217.712357,258.323761 212.788498,258.651611 207.445099,258.989380 
	C206.954895,255.961761 206.884216,252.924225 206.919617,249.442734 
	C211.852005,248.839844 216.678314,248.680908 221.766739,249.256073 
	C222.231308,252.658752 222.433762,255.327332 222.636215,257.995911 
z"/>
<path fill="#FB78DD" opacity="1.000000" stroke="none" 
	d="
M179.521286,358.997437 
	C184.316208,358.996948 189.111145,358.996460 194.358719,358.998230 
	C194.876633,361.707367 194.941895,364.414154 194.900269,367.561066 
	C189.992737,368.000519 185.192108,367.999878 179.871460,367.555878 
	C179.408066,364.407471 179.464676,361.702454 179.521286,358.997437 
z"/>
<path fill="#010101" opacity="1.000000" stroke="none" 
	d="
M37.381317,252.235718 
	C36.380573,248.440613 35.571396,244.933533 34.637009,241.134430 
	C30.740528,224.429092 28.916885,207.762787 30.088207,190.993271 
	C32.609592,154.895264 44.567749,122.266510 67.490349,93.959618 
	C93.519463,61.816525 126.757774,41.057484 167.333939,33.318073 
	C219.113831,23.441685 266.369690,34.587868 307.897614,67.442299 
	C340.353058,93.119133 360.418304,126.708496 368.814789,167.141022 
	C373.727448,190.797592 373.158997,214.539413 368.201233,238.585236 
	C367.067230,243.043076 365.891266,247.088608 364.769592,251.542114 
	C363.260834,256.050049 361.697815,260.150024 360.138550,264.625610 
	C358.409607,268.740204 356.676910,272.479187 354.891846,276.586212 
	C352.518219,281.039001 350.196991,285.123779 347.785278,289.560608 
	C344.855652,294.054810 342.016510,298.196930 339.094360,302.673920 
	C336.383209,306.087036 333.755035,309.165253 330.827393,312.687927 
	C330.227051,313.333221 330.084320,313.614410 330.099762,313.975922 
	C329.931549,314.054596 329.763336,314.133270 329.475525,314.463501 
	C325.543976,318.555878 321.732086,322.396667 317.769165,326.544983 
	C315.188477,328.881927 312.758789,330.911346 309.957703,333.222595 
	C309.359528,333.620422 309.263672,333.804626 309.298767,334.057098 
	C309.298767,334.057098 309.040771,334.049072 309.029388,334.177734 
	C308.423309,334.240845 307.828613,334.175323 306.890198,333.569397 
	C304.077209,329.004822 301.607941,324.980652 299.082489,320.591125 
	C296.623383,316.173096 294.220459,312.120392 291.752686,307.720825 
	C289.175995,303.230774 286.664124,299.087585 284.084473,294.593842 
	C281.453125,289.961273 278.889526,285.679321 276.257294,281.065094 
	C273.797882,276.808868 271.407074,272.884918 268.963654,268.601685 
	C266.982758,265.076508 265.054504,261.910614 263.005096,258.419189 
	C260.857208,254.639923 258.830444,251.186188 256.803680,247.732452 
	C255.101578,244.600662 253.399475,241.468872 251.394730,238.154419 
	C246.296432,232.271179 247.644409,227.058258 250.342377,220.376266 
	C262.922852,189.218719 244.325302,153.786301 209.119263,148.339981 
	C178.875366,143.661316 153.556519,163.172501 148.306732,192.936081 
	C146.618164,202.509384 147.109848,212.705399 152.123856,221.478928 
	C155.546295,227.467529 155.351776,232.263367 151.009857,237.626755 
	C149.635742,240.035187 148.327560,242.089478 146.684021,244.670120 
	C144.038559,249.410172 141.728439,253.623871 139.164703,258.037109 
	C137.064240,261.490753 135.217392,264.744812 133.170593,268.292725 
	C131.627304,271.013336 130.283997,273.440125 128.651215,276.052155 
	C126.127037,280.352722 123.892296,284.468018 121.670769,288.593475 
	C121.683983,288.603638 121.657463,288.608124 121.410172,288.747986 
	C121.043480,289.238861 120.924065,289.589905 120.520500,290.120789 
	C118.835526,292.914917 117.434708,295.529175 115.761520,298.332092 
	C113.669762,301.721710 111.850388,304.922699 109.898544,308.197479 
	C109.766083,308.271301 109.630569,308.540131 109.630569,308.540131 
	C109.630569,308.540131 109.797714,308.790253 109.545532,309.060883 
	C109.234146,309.570923 109.174957,309.810303 108.832718,310.243774 
	C106.417595,314.294586 104.285500,318.151276 101.927666,322.270142 
	C99.751953,326.005157 97.801979,329.477997 95.852013,332.950836 
	C94.408264,332.890717 92.964508,332.830597 91.211708,332.663788 
	C86.901398,328.751160 82.900131,324.945251 78.595230,321.019104 
	C75.046349,317.082611 71.801109,313.266357 68.262566,309.304321 
	C66.353607,307.305511 64.737946,305.452515 63.001850,303.004517 
	C62.629433,302.141296 62.377449,301.873077 62.125473,301.604858 
	C62.125477,301.604858 62.097637,301.208191 61.925209,301.109344 
	C59.293110,297.152222 56.833439,293.293945 54.087242,289.238586 
	C51.434753,284.416016 49.068798,279.790497 46.400402,274.983765 
	C43.256268,267.376251 40.414577,259.949982 37.381317,252.235718 
z"/>
<path fill="#020102" opacity="1.000000" stroke="none" 
	d="
M222.734741,258.441467 
	C222.433762,255.327332 222.231308,252.658752 222.044846,249.573364 
	C226.257675,247.126465 230.454483,245.096390 235.154282,242.823029 
	C236.367142,244.779495 237.878937,247.218201 239.708206,250.193298 
	C241.893402,253.866302 243.761139,257.002899 245.746704,260.479492 
	C248.162277,264.576324 250.460022,268.333252 252.827942,272.441406 
	C255.536057,277.047272 258.173981,281.301910 260.793335,285.897583 
	C262.796143,289.514191 264.817505,292.789795 266.898438,296.417999 
	C269.645294,301.180511 272.332581,305.590393 275.061646,310.349426 
	C277.401031,314.469269 279.698578,318.239990 282.034546,322.360046 
	C284.631409,326.840271 287.189850,330.971191 289.748322,335.102142 
	C290.908813,337.287659 291.871918,339.611664 293.282166,341.621979 
	C294.868500,343.883240 294.279999,345.193695 291.812683,346.550446 
	C283.897705,350.774475 276.211578,354.693329 268.261780,358.856018 
	C255.583359,362.689117 243.168610,366.278412 230.377609,370.018799 
	C227.758148,370.376984 225.514908,370.584045 222.959564,370.819916 
	C222.866653,369.030914 222.783447,367.429047 222.590332,365.406708 
	C222.567444,355.628021 222.654465,346.269806 222.633026,336.454193 
	C222.601532,331.966980 222.678497,327.937195 222.649963,323.455322 
	C222.621643,318.638794 222.698853,314.274261 222.672028,309.455811 
	C222.643768,304.305725 222.719528,299.609558 222.693344,294.457642 
	C222.664825,289.635986 222.738235,285.270081 222.708603,280.449402 
	C222.675751,276.298218 222.745972,272.601868 222.719788,268.453796 
	C222.693344,264.963745 222.763290,261.925354 222.734741,258.441467 
z"/>
<path fill="#020102" opacity="1.000000" stroke="none" 
	d="
M179.429993,358.542297 
	C179.464676,361.702454 179.408066,364.407471 179.438080,367.556091 
	C178.579071,368.909454 177.506378,370.701782 176.708298,370.586884 
	C171.213211,369.795685 165.712326,368.853333 160.335953,367.479645 
	C154.089157,365.883575 147.967712,363.796967 141.409882,361.928406 
	C130.595413,356.636719 120.162933,351.339905 109.382713,345.988708 
	C109.001396,344.446075 108.570229,342.819550 109.028458,341.502411 
	C109.696976,339.580780 111.004738,337.881561 112.369759,335.537903 
	C114.500580,331.766724 116.301636,328.545166 118.387154,325.117432 
	C121.083588,320.600891 123.495560,316.290466 126.171288,311.762878 
	C128.384109,308.067444 130.333191,304.589142 132.552811,300.916504 
	C134.829254,297.133942 136.835144,293.545685 139.086029,289.716461 
	C140.947083,286.493195 142.563126,283.510925 144.480164,280.333191 
	C146.515747,277.075989 148.250336,274.014221 150.283569,270.783813 
	C152.702026,266.743256 154.821823,262.871307 157.185257,258.757019 
	C159.326126,255.099976 161.223358,251.685287 163.120575,248.270599 
	C164.439529,246.409561 165.758484,244.548523 167.296539,242.378342 
	C169.699066,243.935211 172.001190,245.427032 174.652924,246.956116 
	C178.795181,248.497253 179.657562,251.363815 179.233887,255.183502 
	C178.908722,258.115173 179.191010,261.114227 179.301697,264.541016 
	C179.340042,269.361267 179.279800,273.723785 179.317108,278.542328 
	C179.354843,284.028442 179.295029,289.058533 179.336456,294.546570 
	C179.378723,299.699951 179.319748,304.395386 179.364471,309.547546 
	C179.407028,314.367645 179.345886,318.731110 179.391113,323.549286 
	C179.433029,327.701508 179.368576,331.398987 179.408630,335.547150 
	C179.447205,339.035431 179.381287,342.073029 179.417374,345.555725 
	C179.459167,350.029602 179.398926,354.058350 179.429993,358.542297 
z"/>
<path fill="#FA9DE5" opacity="1.000000" stroke="none" 
	d="
M118.102692,325.323578 
	C116.301636,328.545166 114.500580,331.766724 112.415024,335.199371 
	C110.789650,334.607819 109.499107,333.236420 108.098183,333.112488 
	C104.359230,332.781647 100.572845,332.986969 96.328659,332.965027 
	C97.801979,329.477997 99.751953,326.005157 102.384064,322.266235 
	C106.727730,322.002319 110.429550,321.692657 114.031242,322.157928 
	C115.500198,322.347717 116.752060,324.217926 118.102692,325.323578 
z"/>
<path fill="#FBE9F7" opacity="1.000000" stroke="none" 
	d="
M245.628876,260.139526 
	C243.761139,257.002899 241.893402,253.866302 239.977386,250.399200 
	C243.153030,249.712326 246.383163,249.403259 249.598724,248.982697 
	C251.700256,248.707840 253.780624,248.271362 256.337097,247.819870 
	C258.830444,251.186188 260.857208,254.639923 262.726868,258.751526 
	C256.922821,259.652740 251.275848,259.896149 245.628876,260.139526 
z"/>
<path fill="#FA9DE5" opacity="1.000000" stroke="none" 
	d="
M290.228119,335.072388 
	C287.189850,330.971191 284.631409,326.840271 282.498596,322.355225 
	C288.329041,321.652924 293.733826,321.304688 299.138641,320.956451 
	C301.607941,324.980652 304.077209,329.004822 306.637115,333.394348 
	C301.387817,334.187347 296.047852,334.614990 290.228119,335.072388 
z"/>
<path fill="#FBE9F7" opacity="1.000000" stroke="none" 
	d="
M162.847900,247.934723 
	C161.223358,251.685287 159.326126,255.099976 156.774689,258.697754 
	C150.553101,258.533081 144.985703,258.185303 139.418304,257.837555 
	C141.728439,253.623871 144.038559,249.410172 146.637085,245.005493 
	C148.350464,245.543472 149.718857,246.726151 151.211487,246.912231 
	C154.969528,247.380753 158.783600,247.399689 162.847900,247.934723 
z"/>
<path fill="#FAA3E6" opacity="1.000000" stroke="none" 
	d="
M330.305664,313.852722 
	C330.084320,313.614410 330.227051,313.333221 330.743835,313.014893 
	C330.908844,313.227905 330.759491,313.505249 330.305664,313.852722 
z"/>
<path fill="#FB90E2" opacity="1.000000" stroke="none" 
	d="
M309.419189,333.988892 
	C309.263672,333.804626 309.359528,333.620422 309.750519,333.513336 
	C309.822083,333.685516 309.697052,333.818359 309.419189,333.988892 
z"/>
<path fill="#FAC0EC" opacity="1.000000" stroke="none" 
	d="
M62.160721,301.868958 
	C62.377449,301.873077 62.629433,302.141296 62.845634,302.694763 
	C62.605228,302.697723 62.400600,302.415375 62.160721,301.868958 
z"/>
<path fill="#FBB7EB" opacity="1.000000" stroke="none" 
	d="
M275.019867,310.000305 
	C272.332581,305.590393 269.645294,301.180511 267.374939,296.398438 
	C273.245331,295.665680 278.698792,295.305054 284.152252,294.944427 
	C286.664124,299.087585 289.175995,303.230774 291.384827,307.888123 
	C285.727783,308.934998 280.373840,309.467651 275.019867,310.000305 
z"/>
<path fill="#FAC0EC" opacity="1.000000" stroke="none" 
	d="
M284.084473,294.593842 
	C278.698792,295.305054 273.245331,295.665680 267.315369,296.045837 
	C264.817505,292.789795 262.796143,289.514191 260.963135,285.496857 
	C263.425293,284.170898 265.684723,283.521088 267.976593,283.019318 
	C270.745361,282.413147 273.541565,281.932404 276.325897,281.397369 
	C278.889526,285.679321 281.453125,289.961273 284.084473,294.593842 
z"/>
<path fill="#FAABE7" opacity="1.000000" stroke="none" 
	d="
M275.061646,310.349426 
	C280.373840,309.467651 285.727783,308.934998 291.449646,308.235046 
	C294.220459,312.120392 296.623383,316.173096 299.082489,320.591125 
	C293.733826,321.304688 288.329041,321.652924 282.460175,322.005951 
	C279.698578,318.239990 277.401031,314.469269 275.061646,310.349426 
z"/>
<path fill="#FAD4F1" opacity="1.000000" stroke="none" 
	d="
M276.257294,281.065094 
	C273.541565,281.932404 270.745361,282.413147 267.976593,283.019318 
	C265.684723,283.521088 263.425293,284.170898 260.981689,285.155823 
	C258.173981,281.301910 255.536057,277.047272 253.257034,272.372803 
	C257.329590,271.635162 261.066284,271.472046 264.745636,270.924072 
	C266.233612,270.702484 267.596466,269.640503 269.016266,268.960968 
	C271.407074,272.884918 273.797882,276.808868 276.257294,281.065094 
z"/>
<path fill="#FCC9F0" opacity="1.000000" stroke="none" 
	d="
M144.179153,280.528625 
	C142.563126,283.510925 140.947083,286.493195 138.702881,289.717010 
	C132.602341,289.500122 127.129944,289.041718 121.657555,288.583313 
	C123.892296,284.468018 126.127037,280.352722 128.750519,276.453857 
	C132.401825,277.114380 135.709732,277.357666 138.909546,278.079803 
	C140.756256,278.496582 142.428436,279.686615 144.179153,280.528625 
z"/>
<path fill="#FAABE7" opacity="1.000000" stroke="none" 
	d="
M118.387146,325.117432 
	C116.752060,324.217926 115.500198,322.347717 114.031242,322.157928 
	C110.429550,321.692657 106.727730,322.002319 102.609802,322.004089 
	C104.285500,318.151276 106.417595,314.294586 109.206223,310.408936 
	C115.211021,310.913361 120.559280,311.446686 125.907532,311.980042 
	C123.495560,316.290466 121.083588,320.600891 118.387146,325.117432 
z"/>
<path fill="#FADEF4" opacity="1.000000" stroke="none" 
	d="
M268.963654,268.601685 
	C267.596466,269.640503 266.233612,270.702484 264.745636,270.924072 
	C261.066284,271.472046 257.329590,271.635162 253.186859,272.021545 
	C250.460022,268.333252 248.162277,264.576324 245.746704,260.479492 
	C251.275848,259.896149 256.922821,259.652740 262.848022,259.077026 
	C265.054504,261.910614 266.982758,265.076508 268.963654,268.601685 
z"/>
<path fill="#FBB7EB" opacity="1.000000" stroke="none" 
	d="
M126.171288,311.762878 
	C120.559280,311.446686 115.211021,310.913361 109.489265,310.214844 
	C109.174957,309.810303 109.234146,309.570923 109.607819,308.959229 
	C109.922302,308.586975 110.031013,308.123657 110.031006,308.123657 
	C111.850388,304.922699 113.669762,301.721710 115.861710,298.713989 
	C117.885765,299.271820 119.521042,299.767395 121.192047,299.974152 
	C124.879227,300.430237 128.584412,300.740875 132.282257,301.110840 
	C130.333191,304.589142 128.384109,308.067444 126.171288,311.762878 
z"/>
<path fill="#FAC0EC" opacity="1.000000" stroke="none" 
	d="
M132.552795,300.916504 
	C128.584412,300.740875 124.879227,300.430237 121.192047,299.974152 
	C119.521042,299.767395 117.885765,299.271820 116.134087,298.525330 
	C117.434708,295.529175 118.835526,292.914917 120.777519,289.986725 
	C121.431618,289.317902 121.544540,288.963013 121.657463,288.608124 
	C121.657463,288.608124 121.683983,288.603638 121.670769,288.593475 
	C127.129944,289.041718 132.602341,289.500122 138.457870,289.957977 
	C136.835144,293.545685 134.829254,297.133942 132.552795,300.916504 
z"/>
<path fill="#FADEF4" opacity="1.000000" stroke="none" 
	d="
M139.164703,258.037109 
	C144.985703,258.185303 150.553101,258.533081 156.531067,258.940125 
	C154.821823,262.871307 152.702026,266.743256 150.233856,270.394348 
	C148.436020,269.450195 147.023865,268.211029 145.529892,268.102905 
	C141.495392,267.810944 137.426071,268.000397 133.370560,267.998871 
	C135.217392,264.744812 137.064240,261.490753 139.164703,258.037109 
z"/>
<path fill="#FAD4F1" opacity="1.000000" stroke="none" 
	d="
M133.170593,268.292725 
	C137.426071,268.000397 141.495392,267.810944 145.529892,268.102905 
	C147.023865,268.211029 148.436020,269.450195 149.935211,270.562988 
	C148.250336,274.014221 146.515747,277.075989 144.480164,280.333191 
	C142.428436,279.686615 140.756256,278.496582 138.909546,278.079803 
	C135.709732,277.357666 132.401825,277.114380 129.039963,276.268555 
	C130.283997,273.440125 131.627304,271.013336 133.170593,268.292725 
z"/>
<path fill="#FAABE7" opacity="1.000000" stroke="none" 
	d="
M109.898544,308.197479 
	C110.031013,308.123657 109.922302,308.586975 109.860008,308.688599 
	C109.797714,308.790253 109.630569,308.540131 109.630569,308.540131 
	C109.630569,308.540131 109.766083,308.271301 109.898544,308.197479 
z"/>
<path fill="#FCC9F0" opacity="1.000000" stroke="none" 
	d="
M121.410172,288.747986 
	C121.544540,288.963013 121.431618,289.317902 121.061676,289.806854 
	C120.924065,289.589905 121.043480,289.238861 121.410172,288.747986 
z"/>
</svg>