<?xml version="1.0" encoding="UTF-8"?>
<svg version="1.1" xmlns="http://www.w3.org/2000/svg" width="400" height="400">
<path d="M0 0 C1.08076309 -0.00860046 2.16152618 -0.01720093 3.27503967 -0.02606201 C4.47132996 -0.03032196 5.66762024 -0.03458191 6.90016174 -0.03897095 C8.77823265 -0.05123718 8.77823265 -0.05123718 10.69424438 -0.06375122 C14.86126888 -0.0886764 19.02825686 -0.10529364 23.19532776 -0.11953735 C24.63051421 -0.12489684 26.0657006 -0.13027435 27.50088692 -0.13566971 C33.47572553 -0.15731459 39.45056141 -0.17604675 45.42542934 -0.1872921 C53.97912917 -0.20349688 62.53237216 -0.23657075 71.08589977 -0.29369295 C77.10301152 -0.33249845 83.12000169 -0.35193784 89.13723522 -0.35721266 C92.72820729 -0.36085455 96.31869268 -0.37274827 99.90952873 -0.4053154 C103.92620935 -0.44121781 107.94192103 -0.43699846 111.95875549 -0.42959595 C113.7258638 -0.45420395 113.7258638 -0.45420395 115.52867126 -0.47930908 C123.27402315 -0.42106195 128.37879248 1.25246294 135.01173401 5.15390015 C136.29413471 5.74509334 137.58687416 6.31457247 138.89064026 6.85702515 C163.75941525 17.30032832 185.54193109 31.45666092 205.01173401 50.15390015 C205.58069397 50.69562866 206.14965393 51.23735718 206.7358551 51.79550171 C214.99904528 59.69981529 222.39724284 67.82499746 229.01173401 77.15390015 C229.40779846 77.70030151 229.80386292 78.24670288 230.21192932 78.80966187 C241.69760233 94.74453161 250.28063345 112.53088304 257.58595276 130.70858765 C258.66243369 133.93226122 258.66243369 133.93226122 260.01173401 135.15390015 C260.11875413 136.81400065 260.15582249 138.47864856 260.16563416 140.14216614 C260.17423462 141.22292923 260.18283508 142.30369232 260.19169617 143.41720581 C260.19808609 145.21164124 260.19808609 145.21164124 260.2046051 147.04232788 C260.21278259 148.29437515 260.22096008 149.54642242 260.22938538 150.83641052 C260.25431055 155.00343502 260.2709278 159.170423 260.28517151 163.3374939 C260.290531 164.77268035 260.29590851 166.20786674 260.30130386 167.64305305 C260.32294875 173.61789167 260.3416809 179.59272754 260.35292625 185.56759548 C260.36913103 194.12129531 260.40220491 202.6745383 260.4593271 211.22806591 C260.49813261 217.24517765 260.517572 223.26216783 260.52284682 229.27940136 C260.52648871 232.87037342 260.53838243 236.46085882 260.57094955 240.05169487 C260.60685197 244.06837549 260.60263261 248.08408716 260.5952301 252.10092163 C260.6198381 253.86802994 260.6198381 253.86802994 260.64494324 255.6708374 C260.58663589 263.42419706 258.90270929 268.51148596 255.01173401 275.15390015 C254.36184494 276.57155106 253.72930763 277.99747124 253.12501526 279.43515015 C230.20267783 333.19363913 188.26149173 373.03752199 134.37110901 395.08358765 C131.80677049 396.11316365 129.23404252 397.10901389 126.65235901 398.0953064 C124.12823301 398.90632911 124.12823301 398.90632911 123.01173401 400.15390015 C121.39776118 400.25862831 119.77921478 400.29354088 118.16186523 400.30107117 C117.11186844 400.30822647 116.06187164 400.31538177 114.98005676 400.32275391 C113.23701263 400.32678726 113.23701263 400.32678726 111.45875549 400.3309021 C110.24250992 400.3374733 109.02626434 400.34404449 107.77316284 400.35081482 C104.42567142 400.36719067 101.07824353 400.37878591 97.73072696 400.38702035 C95.6382928 400.39216795 93.5458631 400.39824401 91.45343208 400.40453148 C84.90416402 400.42359776 78.35490729 400.43782176 71.8056168 400.44614345 C64.25135649 400.45590047 56.69739041 400.48217337 49.14323372 400.52264434 C43.30279466 400.55285665 37.46243964 400.56761743 31.62192398 400.57092446 C28.13504855 400.57327058 24.6484869 400.58217193 21.16169548 400.60738564 C17.26452742 400.63510857 13.36774196 400.63081956 9.47047424 400.62387085 C8.32261444 400.63668091 7.17475464 400.64949097 5.99211121 400.66268921 C-0.83626582 400.61836517 -5.12849671 399.69417853 -10.98826599 396.15390015 C-12.40167625 395.53475335 -13.8229853 394.9326281 -15.25779724 394.36483765 C-60.36550392 376.15531319 -98.0706358 344.73590495 -121.98826599 302.15390015 C-122.49003357 301.27580688 -122.49003357 301.27580688 -123.00193787 300.37997437 C-128.91749486 289.98162443 -133.59673964 279.11237632 -138.17552185 268.07064819 C-138.73713237 266.7461651 -139.34489023 265.44065167 -139.98826599 264.15390015 C-140.09183597 262.46611102 -140.13210441 260.77427746 -140.14216614 259.08334351 C-140.1507666 258.0096199 -140.15936707 256.9358963 -140.16822815 255.82963562 C-140.1724881 254.64629135 -140.17674805 253.46294708 -140.18113708 252.2437439 C-140.18931458 251.00130417 -140.19749207 249.75886444 -140.20591736 248.47877502 C-140.2308139 244.34965336 -140.24745376 240.22056846 -140.26170349 236.09140015 C-140.26706404 234.66828403 -140.27244155 233.24516799 -140.27783585 231.822052 C-140.29947321 225.89778522 -140.31820576 219.97352117 -140.32945824 214.04922485 C-140.34566733 205.57168071 -140.37876046 197.09459714 -140.43585908 188.6172266 C-140.4746649 182.6510497 -140.49410388 176.68499537 -140.4993788 170.71869564 C-140.50301996 167.15903573 -140.51490625 163.59986688 -140.54748154 160.04034424 C-140.58338435 156.05983278 -140.57916429 152.07988992 -140.57176208 148.09921265 C-140.58816742 146.93206223 -140.60457275 145.7649118 -140.62147522 144.56239319 C-140.56293748 136.84777834 -138.86831956 131.76233495 -134.98826599 125.15390015 C-134.39717604 123.87145186 -133.82769641 122.57871724 -133.28514099 121.2749939 C-123.15972799 97.16321495 -109.54844655 75.60674247 -91.44773865 56.68075562 C-90.46318172 55.65074239 -89.4837846 54.61577555 -88.50926208 53.57626343 C-79.81042392 44.32020431 -70.32706737 36.52020246 -59.98826599 29.15390015 C-59.41028259 28.74188354 -58.83229919 28.32986694 -58.23680115 27.90536499 C-43.12991957 17.31836855 -26.15549131 9.02249348 -8.99607849 2.3609314 C-3.15928543 0.01863392 -3.15928543 0.01863392 0 0 Z M-7.98826599 66.15390015 C-9.0053363 66.64761108 -10.02240662 67.14132202 -11.07029724 67.6499939 C-25.00332286 74.85110377 -37.08980105 84.9686335 -47.98826599 96.15390015 C-48.55674255 96.67725952 -49.12521912 97.2006189 -49.71092224 97.73983765 C-75.23340576 121.79084597 -88.93193744 159.89549379 -90.20310974 194.28671265 C-90.81104887 219.50833496 -86.05660727 243.47437174 -74.98826599 266.15390015 C-74.67486267 266.79988159 -74.36145935 267.44586304 -74.03855896 268.11141968 C-68.51644956 279.33811795 -62.0327637 289.3786782 -52.98826599 298.15390015 C-49.10117006 296.66342328 -47.76770775 294.69336942 -45.67576599 291.15390015 C-45.34657166 290.6019397 -45.01737732 290.04997925 -44.6782074 289.48129272 C-43.43372034 287.38036383 -42.21021313 285.26802117 -40.98826599 283.15390015 C-40.45765564 282.23914917 -39.92704529 281.32439819 -39.38035583 280.38192749 C-36.2294603 274.94520844 -33.09407425 269.49987643 -29.96873474 264.0484314 C-27.34356138 259.48007381 -24.67958405 254.93832552 -21.97654724 250.4156189 C-21.33797791 249.34158813 -20.69940857 248.26755737 -20.04148865 247.16098022 C-18.82927782 245.12598249 -17.609316 243.0955748 -16.38035583 241.07064819 C-11.30536313 232.52011317 -9.23504902 226.37271059 -11.36326599 216.52890015 C-15.32075277 195.52659981 -11.8980307 175.70314099 0.08204651 157.81015015 C11.74758716 141.75232091 28.6442649 130.92348364 48.33595276 127.59140015 C68.13757916 125.2345647 87.66815309 129.39842616 104.01173401 141.15390015 C120.08402941 154.23456162 130.54590295 171.32643424 133.01173401 192.15390015 C133.37957711 200.4688651 133.20224302 208.19311473 131.50318909 216.34335327 C129.7286169 226.49182573 131.21378818 233.2454152 136.63673401 241.90390015 C137.21850403 242.88052612 137.80027405 243.8571521 138.39967346 244.8633728 C139.62852229 246.92431798 140.86774458 248.97910962 142.11671448 251.02792358 C144.61120121 255.14276617 147.01879993 259.30538642 149.42799377 263.47055054 C151.17493168 266.48693802 152.93477279 269.4953913 154.69923401 272.5015564 C156.81506313 276.10691452 158.91995624 279.71813109 161.01173401 283.3374939 C161.90756545 284.88046375 162.80339866 286.42343257 163.69923401 287.96640015 C164.09715149 288.65975464 164.49506897 289.35310913 164.90504456 290.06747437 C166.67393846 293.10173944 168.32140288 295.85644277 171.01173401 298.15390015 C175.90561134 296.77941224 178.22267733 293.95626072 181.07423401 289.96640015 C181.77552429 288.99247314 181.77552429 288.99247314 182.49098206 287.99887085 C205.8612997 254.40863627 214.78376523 213.47307653 207.98439026 173.1890564 C205.43448728 159.43751139 201.13959938 146.71017152 195.01173401 134.15390015 C194.54162903 133.18492798 194.54162903 133.18492798 194.06202698 132.19638062 C189.59367312 123.11201504 184.43297268 115.02118154 178.01173401 107.15390015 C177.54718811 106.58252319 177.08264221 106.01114624 176.60401917 105.42245483 C151.85963559 75.18022704 116.39652818 55.27828671 77.42237854 50.67172241 C47.44887132 47.70030407 18.97548834 52.995044 -7.98826599 66.15390015 Z M48.13673401 190.84140015 C45.63040647 194.74832249 44.72493554 197.53823734 45.01173401 202.15390015 C46.66711213 208.15464585 49.78151217 211.92949534 55.01173401 215.15390015 C59.01605197 216.34817041 61.11199315 216.44769308 65.07423401 215.15390015 C69.31718854 212.26508004 72.96179606 209.12289136 74.71485901 204.1656189 C75.61069586 199.15087997 74.60695613 195.5908928 72.01173401 191.15390015 C68.34649461 187.23294637 65.31718133 185.35813156 60.02735901 185.0249939 C54.9603965 185.34904382 51.75933336 187.45505728 48.13673401 190.84140015 Z M14.01173401 304.15390015 C9.57998996 310.94723115 5.18015301 317.75748028 1.01173401 324.71640015 C0.45485901 325.64581421 -0.10201599 326.57522827 -0.67576599 327.5328064 C-1.9696941 330.11681163 -2.57637966 332.30673589 -2.98826599 335.15390015 C1.90173174 339.58546059 6.88183168 341.92627089 13.44923401 342.40390015 C15.94289516 342.43444079 15.94289516 342.43444079 17.01173401 341.15390015 C17.10028562 338.48763984 17.12698074 335.847429 17.10939026 333.1812439 C17.10797531 332.38360123 17.10656036 331.58595856 17.10510254 330.7641449 C17.09948717 328.20652579 17.08693213 325.64899297 17.07423401 323.09140015 C17.06922099 321.3615837 17.06465774 319.63176588 17.06056213 317.90194702 C17.04951276 313.65256462 17.03223787 309.40324703 17.01173401 305.15390015 C16.02173401 304.82390015 15.03173401 304.49390015 14.01173401 304.15390015 Z M104.01173401 304.15390015 C102.22342953 305.94220463 102.8832469 308.34971166 102.87278748 310.73031616 C102.87481171 311.50947388 102.87683594 312.28863159 102.87892151 313.09140015 C102.87796478 313.88667114 102.87700806 314.68194214 102.87602234 315.50131226 C102.87534058 317.18596475 102.87719458 318.87061986 102.88136292 320.55526733 C102.88671126 323.14289211 102.88141782 325.73034331 102.87501526 328.31796265 C102.87567604 329.95077553 102.87695721 331.58358831 102.87892151 333.21640015 C102.87689728 333.99555786 102.87487305 334.77471558 102.87278748 335.57748413 C102.55333821 339.16184215 102.55333821 339.16184215 104.01173401 342.15390015 C110.10482445 342.22056416 116.09175566 340.87043055 121.01173401 337.15390015 C122.49291996 335.39986712 122.49291996 335.39986712 123.01173401 333.15390015 C120.72933427 325.59879084 115.47788733 318.52335085 111.26173401 311.90390015 C110.77809387 311.14053345 110.29445374 310.37716675 109.79615784 309.59066772 C109.33620422 308.88450317 108.87625061 308.17833862 108.40235901 307.45077515 C107.78409241 306.49703003 107.78409241 306.49703003 107.15333557 305.52401733 C106.77660706 305.07187866 106.39987854 304.61973999 106.01173401 304.15390015 C105.35173401 304.15390015 104.69173401 304.15390015 104.01173401 304.15390015 Z " fill="#F9D2F0" transform="translate(139.98826599121094,-0.153900146484375)"/>
<path d="M0 0 C1.08076309 -0.00860046 2.16152618 -0.01720093 3.27503967 -0.02606201 C4.47132996 -0.03032196 5.66762024 -0.03458191 6.90016174 -0.03897095 C8.77823265 -0.05123718 8.77823265 -0.05123718 10.69424438 -0.06375122 C14.86126888 -0.0886764 19.02825686 -0.10529364 23.19532776 -0.11953735 C24.63051421 -0.12489684 26.0657006 -0.13027435 27.50088692 -0.13566971 C33.47572553 -0.15731459 39.45056141 -0.17604675 45.42542934 -0.1872921 C53.97912917 -0.20349688 62.53237216 -0.23657075 71.08589977 -0.29369295 C77.10301152 -0.33249845 83.12000169 -0.35193784 89.13723522 -0.35721266 C92.72820729 -0.36085455 96.31869268 -0.37274827 99.90952873 -0.4053154 C103.92620935 -0.44121781 107.94192103 -0.43699846 111.95875549 -0.42959595 C113.7258638 -0.45420395 113.7258638 -0.45420395 115.52867126 -0.47930908 C123.27402315 -0.42106195 128.37879248 1.25246294 135.01173401 5.15390015 C136.29413471 5.74509334 137.58687416 6.31457247 138.89064026 6.85702515 C163.75941525 17.30032832 185.54193109 31.45666092 205.01173401 50.15390015 C205.58069397 50.69562866 206.14965393 51.23735718 206.7358551 51.79550171 C214.99904528 59.69981529 222.39724284 67.82499746 229.01173401 77.15390015 C229.40779846 77.70030151 229.80386292 78.24670288 230.21192932 78.80966187 C241.69760233 94.74453161 250.28063345 112.53088304 257.58595276 130.70858765 C258.66243369 133.93226122 258.66243369 133.93226122 260.01173401 135.15390015 C260.11875413 136.81400065 260.15582249 138.47864856 260.16563416 140.14216614 C260.17423462 141.22292923 260.18283508 142.30369232 260.19169617 143.41720581 C260.19808609 145.21164124 260.19808609 145.21164124 260.2046051 147.04232788 C260.21278259 148.29437515 260.22096008 149.54642242 260.22938538 150.83641052 C260.25431055 155.00343502 260.2709278 159.170423 260.28517151 163.3374939 C260.290531 164.77268035 260.29590851 166.20786674 260.30130386 167.64305305 C260.32294875 173.61789167 260.3416809 179.59272754 260.35292625 185.56759548 C260.36913103 194.12129531 260.40220491 202.6745383 260.4593271 211.22806591 C260.49813261 217.24517765 260.517572 223.26216783 260.52284682 229.27940136 C260.52648871 232.87037342 260.53838243 236.46085882 260.57094955 240.05169487 C260.60685197 244.06837549 260.60263261 248.08408716 260.5952301 252.10092163 C260.6198381 253.86802994 260.6198381 253.86802994 260.64494324 255.6708374 C260.58663589 263.42419706 258.90270929 268.51148596 255.01173401 275.15390015 C254.36184494 276.57155106 253.72930763 277.99747124 253.12501526 279.43515015 C230.20267783 333.19363913 188.26149173 373.03752199 134.37110901 395.08358765 C131.80677049 396.11316365 129.23404252 397.10901389 126.65235901 398.0953064 C124.12823301 398.90632911 124.12823301 398.90632911 123.01173401 400.15390015 C121.39776118 400.25862831 119.77921478 400.29354088 118.16186523 400.30107117 C117.11186844 400.30822647 116.06187164 400.31538177 114.98005676 400.32275391 C113.23701263 400.32678726 113.23701263 400.32678726 111.45875549 400.3309021 C110.24250992 400.3374733 109.02626434 400.34404449 107.77316284 400.35081482 C104.42567142 400.36719067 101.07824353 400.37878591 97.73072696 400.38702035 C95.6382928 400.39216795 93.5458631 400.39824401 91.45343208 400.40453148 C84.90416402 400.42359776 78.35490729 400.43782176 71.8056168 400.44614345 C64.25135649 400.45590047 56.69739041 400.48217337 49.14323372 400.52264434 C43.30279466 400.55285665 37.46243964 400.56761743 31.62192398 400.57092446 C28.13504855 400.57327058 24.6484869 400.58217193 21.16169548 400.60738564 C17.26452742 400.63510857 13.36774196 400.63081956 9.47047424 400.62387085 C8.32261444 400.63668091 7.17475464 400.64949097 5.99211121 400.66268921 C-0.83626582 400.61836517 -5.12849671 399.69417853 -10.98826599 396.15390015 C-12.40167625 395.53475335 -13.8229853 394.9326281 -15.25779724 394.36483765 C-60.36550392 376.15531319 -98.0706358 344.73590495 -121.98826599 302.15390015 C-122.49003357 301.27580688 -122.49003357 301.27580688 -123.00193787 300.37997437 C-128.91749486 289.98162443 -133.59673964 279.11237632 -138.17552185 268.07064819 C-138.73713237 266.7461651 -139.34489023 265.44065167 -139.98826599 264.15390015 C-140.09183597 262.46611102 -140.13210441 260.77427746 -140.14216614 259.08334351 C-140.1507666 258.0096199 -140.15936707 256.9358963 -140.16822815 255.82963562 C-140.1724881 254.64629135 -140.17674805 253.46294708 -140.18113708 252.2437439 C-140.18931458 251.00130417 -140.19749207 249.75886444 -140.20591736 248.47877502 C-140.2308139 244.34965336 -140.24745376 240.22056846 -140.26170349 236.09140015 C-140.26706404 234.66828403 -140.27244155 233.24516799 -140.27783585 231.822052 C-140.29947321 225.89778522 -140.31820576 219.97352117 -140.32945824 214.04922485 C-140.34566733 205.57168071 -140.37876046 197.09459714 -140.43585908 188.6172266 C-140.4746649 182.6510497 -140.49410388 176.68499537 -140.4993788 170.71869564 C-140.50301996 167.15903573 -140.51490625 163.59986688 -140.54748154 160.04034424 C-140.58338435 156.05983278 -140.57916429 152.07988992 -140.57176208 148.09921265 C-140.58816742 146.93206223 -140.60457275 145.7649118 -140.62147522 144.56239319 C-140.56293748 136.84777834 -138.86831956 131.76233495 -134.98826599 125.15390015 C-134.39717604 123.87145186 -133.82769641 122.57871724 -133.28514099 121.2749939 C-123.15972799 97.16321495 -109.54844655 75.60674247 -91.44773865 56.68075562 C-90.46318172 55.65074239 -89.4837846 54.61577555 -88.50926208 53.57626343 C-79.81042392 44.32020431 -70.32706737 36.52020246 -59.98826599 29.15390015 C-59.41028259 28.74188354 -58.83229919 28.32986694 -58.23680115 27.90536499 C-43.12991957 17.31836855 -26.15549131 9.02249348 -8.99607849 2.3609314 C-3.15928543 0.01863392 -3.15928543 0.01863392 0 0 Z M20.24806213 16.60702515 C18.03728736 17.14765129 15.82456589 17.59907229 13.58985901 18.02890015 C-27.89858533 26.30022622 -66.05482629 54.81508319 -90.98826599 88.15390015 C-92.11361755 89.62729858 -92.11361755 89.62729858 -93.26170349 91.13046265 C-113.34655574 118.61118106 -126.98598762 154.18129413 -127.19139099 188.4468689 C-127.2017765 189.61679131 -127.2017765 189.61679131 -127.21237183 190.81034851 C-127.22960043 193.32075052 -127.23596167 195.83094176 -127.23826599 198.34140015 C-127.23960541 199.19604858 -127.24094482 200.05069702 -127.24232483 200.9312439 C-127.23801185 213.59057302 -126.6498868 225.74221279 -123.98826599 238.15390015 C-123.73201665 239.48027253 -123.47806268 240.8070907 -123.22654724 242.1343689 C-121.92698817 248.65966817 -120.36993724 254.94250154 -117.98826599 261.15390015 C-117.35018005 262.87866577 -117.35018005 262.87866577 -116.69920349 264.63827515 C-109.86178997 282.50278018 -100.91259666 300.00628204 -88.35594177 314.5184021 C-86.72783228 316.46533274 -85.20854202 318.48269372 -83.67576599 320.50546265 C-80.04507526 325.19588273 -76.07081453 329.4171835 -71.86326599 333.59140015 C-71.11899353 334.33075806 -70.37472107 335.07011597 -69.6078949 335.83187866 C-59.12134431 346.09906888 -47.30486223 354.23816318 -34.98826599 362.15390015 C-34.10139099 362.74300171 -33.21451599 363.33210327 -32.30076599 363.9390564 C-29.83344669 365.46394571 -29.83344669 365.46394571 -25.98826599 365.15390015 C-25.98826599 365.81390015 -25.98826599 366.47390015 -25.98826599 367.15390015 C-23.94631811 368.06925609 -21.90306793 368.98176004 -19.85545349 369.8843689 C-17.85500002 370.77012827 -15.86062047 371.66967786 -13.87107849 372.5796814 C-2.05117126 377.86178775 10.03834074 382.10765875 23.01173401 383.15390015 C24.58374573 383.62376343 24.58374573 383.62376343 26.18751526 384.1031189 C30.49219479 385.28591644 34.64501618 385.82822077 39.07423401 386.27890015 C39.85089417 386.36526733 40.62755432 386.45163452 41.42774963 386.5406189 C45.69315244 386.99569151 49.68358242 387.15390015 54.01173401 387.15390015 C54.01173401 337.65390015 54.01173401 288.15390015 54.01173401 237.15390015 C48.73173401 234.51390015 43.45173401 231.87390015 38.01173401 229.15390015 C29.39852748 220.54069361 24.12077195 212.11047024 23.57423401 199.71640015 C23.87961342 190.3027479 27.82500041 181.22445283 34.01173401 174.15390015 C42.13279688 167.04797013 52.27514489 163.35364442 63.03126526 163.77108765 C72.20120916 164.94887861 81.60559629 169.11831418 87.76173401 176.15390015 C94.22325338 185.20002726 97.43901946 195.04146339 96.01173401 206.15390015 C93.64139316 215.99480962 89.24652678 224.34380951 80.69923401 229.96640015 C75.91929289 232.86008648 71.21332124 234.8420836 66.01173401 237.15390015 C66.01173401 286.65390015 66.01173401 336.15390015 66.01173401 387.15390015 C77.59649958 386.44075767 77.59649958 386.44075767 89.07423401 385.21640015 C90.26146057 385.06300171 91.44868713 384.90960327 92.67189026 384.7515564 C95.94223481 384.16633685 98.87402896 383.22687558 102.01173401 382.15390015 C103.61063869 381.87220079 105.21544919 381.62221666 106.82423401 381.40390015 C111.98187378 380.51367739 116.77662381 379.01269019 121.69923401 377.27890015 C122.39959778 377.03430054 123.09996155 376.78970093 123.82154846 376.53768921 C128.12410792 374.98195007 132.17013086 373.13741309 136.23756409 371.04598999 C138.28347859 370.01726127 140.35578899 369.17388051 142.51173401 368.40390015 C143.66673401 367.99140015 144.82173401 367.57890015 146.01173401 367.15390015 C146.01173401 366.49390015 146.01173401 365.83390015 146.01173401 365.15390015 C146.89860901 364.86515015 147.78548401 364.57640015 148.69923401 364.27890015 C151.51555825 363.32241267 154.26256556 362.28591068 157.01173401 361.15390015 C157.01173401 360.49390015 157.01173401 359.83390015 157.01173401 359.15390015 C158.06360901 358.78071655 158.06360901 358.78071655 159.13673401 358.3999939 C180.09925493 349.31433605 198.95486414 328.29960135 212.01173401 310.15390015 C212.73489807 309.19870483 213.45806213 308.24350952 214.20314026 307.2593689 C234.40690589 279.6824938 246.90038561 244.91648529 247.25001526 210.61483765 C247.25967316 209.8195314 247.26933105 209.02422516 247.27928162 208.20481873 C247.30398848 205.64613122 247.31666122 203.08769389 247.32423401 200.52890015 C247.32718475 199.65629547 247.3301355 198.7836908 247.33317566 197.88464355 C247.34308497 185.01126356 246.59853964 172.81125732 243.51124573 160.25985718 C243.0541849 158.33287444 242.70122709 156.38196547 242.35939026 154.4312439 C238.54052379 132.69116093 227.04461724 109.83608518 214.01173401 92.15390015 C213.62517639 91.62747925 213.23861877 91.10105835 212.84034729 90.5586853 C207.30008256 83.05812064 201.41713032 75.93739277 195.01173401 69.15390015 C194.28985901 68.36757202 193.56798401 67.5812439 192.82423401 66.77108765 C163.84451129 36.3227979 118.19184954 14.27074644 75.89430237 12.97689819 C74.38015049 12.95065384 72.86588373 12.93052141 71.35157776 12.9156189 C70.53275116 12.90591568 69.71392456 12.89621246 68.87028503 12.88621521 C66.22988449 12.86134818 63.58973987 12.8486956 60.94923401 12.84140015 C60.04945831 12.83878174 59.14968262 12.83616333 58.22264099 12.83346558 C45.2446842 12.82941318 32.89473988 13.44268312 20.24806213 16.60702515 Z M48.13673401 190.84140015 C45.63040647 194.74832249 44.72493554 197.53823734 45.01173401 202.15390015 C46.66711213 208.15464585 49.78151217 211.92949534 55.01173401 215.15390015 C59.01605197 216.34817041 61.11199315 216.44769308 65.07423401 215.15390015 C69.31718854 212.26508004 72.96179606 209.12289136 74.71485901 204.1656189 C75.61069586 199.15087997 74.60695613 195.5908928 72.01173401 191.15390015 C68.34649461 187.23294637 65.31718133 185.35813156 60.02735901 185.0249939 C54.9603965 185.34904382 51.75933336 187.45505728 48.13673401 190.84140015 Z " fill="#020102" transform="translate(139.98826599121094,-0.153900146484375)"/>
<path d="M0 0 C1.26287842 0.24145752 1.26287842 0.24145752 2.55126953 0.48779297 C30.43823142 5.92113142 56.62024514 19.29509709 78 38 C78.59248535 38.515625 79.1849707 39.03125 79.79541016 39.5625 C87.64700673 46.46245073 94.70819671 53.61862534 101 62 C101.77472656 62.99773437 102.54945313 63.99546875 103.34765625 65.0234375 C130.12308481 100.31953547 141.59031083 145.40567529 136.18017578 189.32324219 C135.56788804 193.57266545 134.81951586 197.78604459 134 202 C133.83902832 202.85754883 133.67805664 203.71509766 133.51220703 204.59863281 C128.51759312 230.42093068 116.65697807 254.65979575 100 275 C99.55043945 275.55494141 99.10087891 276.10988281 98.63769531 276.68164062 C79.6118527 300.04851841 79.6118527 300.04851841 72 301 C66.32880744 291.67690314 60.84221498 282.2615717 55.45092773 272.77392578 C52.46905801 267.53772645 49.43700123 262.33977272 46.3125 257.1875 C42.0514676 250.16002679 38.01535597 243.01427492 34.02880859 235.828125 C33.31538215 234.56041327 32.58812488 233.30042442 31.85009766 232.046875 C29 227.20033213 29 227.20033213 29 225 C28.34 225 27.68 225 27 225 C26.01 221.535 26.01 221.535 25 218 C24.34 218 23.68 218 23 218 C22.505 216.948125 22.01 215.89625 21.5 214.8125 C18.94629055 209.59323982 15.66793601 204.851107 12.4140625 200.05078125 C11 197 11 197 11.64453125 194.41796875 C12.09183594 193.62003906 12.53914062 192.82210937 13 192 C13.68972365 190.33425232 14.37722732 188.6675837 15.0625 187 C15.40410156 186.175 15.74570313 185.35 16.09765625 184.5 C20.40044063 172.57886579 19.27108858 157.32792949 14 146 C13.56429687 145.04609375 13.12859375 144.0921875 12.6796875 143.109375 C5.78677977 129.32355954 -5.6911295 121.89513991 -20 117 C-31.3606944 113.75960325 -45.44199835 115.03061799 -56 120 C-57.41152344 120.63615234 -57.41152344 120.63615234 -58.8515625 121.28515625 C-73.03380761 128.29813971 -80.11765502 139.92203843 -85.19921875 154.421875 C-86.16121239 158.72034413 -86.38344496 162.73273037 -86.375 167.125 C-86.37411377 167.95596191 -86.37322754 168.78692383 -86.37231445 169.64306641 C-86.21836559 177.73749431 -84.95200308 185.7454501 -80.23828125 192.5390625 C-79 195 -79 195 -79.74584961 197.34667969 C-80.98504838 199.96836789 -82.3349094 202.42876571 -83.828125 204.9140625 C-84.38113281 205.84089844 -84.93414062 206.76773438 -85.50390625 207.72265625 C-86.08011719 208.68042969 -86.65632813 209.63820312 -87.25 210.625 C-91.17082439 217.15970732 -94.97610119 223.727007 -98.59765625 230.43261719 C-100.60629374 234.10999042 -102.73116667 237.71281569 -104.875 241.3125 C-107.98204287 246.55924922 -111.05335328 251.82145398 -114.0625 257.125 C-117.07716524 262.42623767 -120.18222406 267.66193305 -123.3503418 272.87207031 C-125.68520559 276.73605274 -127.93214729 280.63989476 -130.1328125 284.58203125 C-130.6700293 285.54036865 -131.20724609 286.49870605 -131.76074219 287.48608398 C-132.82392642 289.38878498 -133.87947744 291.29577451 -134.92675781 293.20727539 C-135.41241211 294.07473389 -135.89806641 294.94219238 -136.3984375 295.8359375 C-136.82817871 296.61501465 -137.25791992 297.3940918 -137.70068359 298.19677734 C-139 300 -139 300 -142 301 C-169.92584121 283.82609417 -191.71288775 245.0721383 -199.52734375 214.23046875 C-200.87472884 208.51989762 -201.99674912 202.78022725 -203 197 C-203.13132324 196.25186035 -203.26264648 195.5037207 -203.39794922 194.73291016 C-206.74388857 174.66196683 -205.82402037 153.91376647 -202 134 C-201.83902832 133.13955078 -201.67805664 132.27910156 -201.51220703 131.39257812 C-196.51653871 105.57442674 -184.65430382 81.33693866 -168 61 C-167.55043945 60.44505859 -167.10087891 59.89011719 -166.63769531 59.31835938 C-140.00927783 26.6142637 -104.08857048 7.04026429 -63 -1 C-62.24364258 -1.14840332 -61.48728516 -1.29680664 -60.70800781 -1.44970703 C-40.90365426 -5.11483013 -19.64950568 -3.97569866 0 0 Z M-102 34 C-103.01707031 34.49371094 -104.03414063 34.98742187 -105.08203125 35.49609375 C-119.01505686 42.69720362 -131.10153506 52.81473335 -142 64 C-142.56847656 64.52335937 -143.13695312 65.04671875 -143.72265625 65.5859375 C-169.24513976 89.63694582 -182.94367145 127.74159365 -184.21484375 162.1328125 C-184.82278288 187.35443482 -180.06834128 211.32047159 -169 234 C-168.68659668 234.64598145 -168.37319336 235.29196289 -168.05029297 235.95751953 C-162.52818357 247.1842178 -156.04449771 257.22477805 -147 266 C-143.11290407 264.50952313 -141.77944176 262.53946927 -139.6875 259 C-139.35830566 258.44803955 -139.02911133 257.8960791 -138.68994141 257.32739258 C-137.44545435 255.22646368 -136.22194714 253.11412103 -135 251 C-134.46938965 250.08524902 -133.9387793 249.17049805 -133.39208984 248.22802734 C-130.24119431 242.79130829 -127.10580826 237.34597629 -123.98046875 231.89453125 C-121.35529539 227.32617366 -118.69131805 222.78442537 -115.98828125 218.26171875 C-115.34971191 217.18768799 -114.71114258 216.11365723 -114.05322266 215.00708008 C-112.84101183 212.97208235 -111.62105001 210.94167466 -110.39208984 208.91674805 C-105.31709714 200.36621303 -103.24678303 194.21881044 -105.375 184.375 C-109.33248678 163.37269967 -105.90976471 143.54924085 -93.9296875 125.65625 C-82.26414685 109.59842077 -65.36746911 98.76958349 -45.67578125 95.4375 C-25.87415485 93.08066455 -6.34358092 97.24452602 10 109 C26.0722954 122.08066147 36.53416894 139.17253409 39 160 C39.3678431 168.31496495 39.19050901 176.03921458 37.49145508 184.18945312 C35.71688289 194.33792558 37.20205417 201.09151506 42.625 209.75 C43.20677002 210.72662598 43.78854004 211.70325195 44.38793945 212.70947266 C45.61678828 214.77041784 46.85601057 216.82520947 48.10498047 218.87402344 C50.5994672 222.98886602 53.00706592 227.15148628 55.41625977 231.31665039 C57.16319767 234.33303787 58.92303878 237.34149115 60.6875 240.34765625 C62.80332912 243.95301437 64.90822223 247.56423095 67 251.18359375 C67.89583144 252.7265636 68.79166465 254.26953242 69.6875 255.8125 C70.08541748 256.50585449 70.48333496 257.19920898 70.89331055 257.91357422 C72.66220445 260.9478393 74.30966887 263.70254262 77 266 C81.89387733 264.62551209 84.21094333 261.80236058 87.0625 257.8125 C87.76379028 256.838573 87.76379028 256.838573 88.47924805 255.8449707 C111.84956569 222.25473612 120.77203122 181.31917639 113.97265625 141.03515625 C111.42275327 127.28361124 107.12786537 114.55627137 101 102 C100.52989502 101.03102783 100.52989502 101.03102783 100.05029297 100.04248047 C95.58193911 90.95811489 90.42123867 82.8672814 84 75 C83.5354541 74.42862305 83.0709082 73.85724609 82.59228516 73.26855469 C57.84790158 43.02632689 22.38479417 23.12438656 -16.58935547 18.51782227 C-46.56286269 15.54640392 -75.03624567 20.84114385 -102 34 Z " fill="#010101" transform="translate(234,32)"/>
<path d="M0 0 C4 1 4 1 13 6 C13 45.93 13 85.86 13 127 C2.86590585 127 2.86590585 127 -1.7421875 125.828125 C-3.24845703 125.44914062 -3.24845703 125.44914062 -4.78515625 125.0625 C-5.80480469 124.794375 -6.82445312 124.52625 -7.875 124.25 C-9.39287109 123.87101562 -9.39287109 123.87101562 -10.94140625 123.484375 C-20.71925132 120.9804454 -30.02787747 117.76320928 -39 113.125 C-39.67353516 112.78275391 -40.34707031 112.44050781 -41.04101562 112.08789062 C-46.7537621 109.16900874 -52.40103752 106.13162308 -58 103 C-58 98.74862814 -57.45382193 97.56694579 -55.375 94.015625 C-54.83359375 93.08105469 -54.2921875 92.14648438 -53.734375 91.18359375 C-53.16203125 90.21550781 -52.5896875 89.24742187 -52 88.25 C-51.42765625 87.26644531 -50.8553125 86.28289062 -50.265625 85.26953125 C-48.85138434 82.84175145 -47.42930941 80.41892878 -46 78 C-45.34 78 -44.68 78 -44 78 C-43.88317871 77.26152832 -43.76635742 76.52305664 -43.64599609 75.76220703 C-42.99857229 72.99389529 -42.15075033 71.20703605 -40.6640625 68.8046875 C-40.18235596 68.01602295 -39.70064941 67.2273584 -39.2043457 66.41479492 C-38.68316162 65.5766626 -38.16197754 64.73853027 -37.625 63.875 C-36.52601501 62.07763469 -35.42839052 60.2794369 -34.33203125 58.48046875 C-33.77467285 57.5682959 -33.21731445 56.65612305 -32.64306641 55.71630859 C-30.13814165 51.57518039 -27.72258933 47.38430558 -25.3125 43.1875 C-21.74890495 36.99703354 -18.12791387 30.84778427 -14.43310547 24.73486328 C-9.50587668 16.55827893 -4.76229497 8.27333081 0 0 Z M-11 62 C-15.43174404 68.79333101 -19.831581 75.60358013 -24 82.5625 C-24.556875 83.49191406 -25.11375 84.42132813 -25.6875 85.37890625 C-26.98142811 87.96291149 -27.58811367 90.15283574 -28 93 C-23.11000227 97.43156045 -18.12990233 99.77237074 -11.5625 100.25 C-9.06883885 100.28054065 -9.06883885 100.28054065 -8 99 C-7.91144839 96.3337397 -7.88475327 93.69352886 -7.90234375 91.02734375 C-7.9037587 90.22970108 -7.90517365 89.43205841 -7.90663147 88.61024475 C-7.91224684 86.05262565 -7.92480188 83.49509282 -7.9375 80.9375 C-7.94251302 79.20768355 -7.94707627 77.47786574 -7.95117188 75.74804688 C-7.96222125 71.49866447 -7.97949614 67.24934688 -8 63 C-8.99 62.67 -9.98 62.34 -11 62 Z " fill="#020102" transform="translate(165,242)"/>
<path d="M0 0 C1.19165039 1.47436523 1.19165039 1.47436523 2.34765625 3.55859375 C2.78287598 4.32848633 3.2180957 5.09837891 3.66650391 5.89160156 C4.35752197 7.15182129 4.35752197 7.15182129 5.0625 8.4375 C6.05013905 10.19176796 7.03843343 11.94566711 8.02734375 13.69921875 C8.77346924 15.03412354 8.77346924 15.03412354 9.53466797 16.39599609 C11.68120898 20.21055898 13.89807977 23.9819737 16.125 27.75 C16.53492188 28.44657715 16.94484375 29.1431543 17.3671875 29.86083984 C19.70204369 33.82360966 22.06264082 37.76985694 24.44116211 41.70654297 C27.91691723 47.4593604 31.29211411 53.25274079 34.5625 59.125 C37.23429762 63.92150467 39.97318254 68.64949801 42.875 73.3125 C46.31638744 78.86897951 49.7211086 84.44520378 53.0625 90.0625 C53.56442871 90.88468018 54.06635742 91.70686035 54.58349609 92.55395508 C55.27113037 93.72027466 55.27113037 93.72027466 55.97265625 94.91015625 C56.59539429 95.94861694 56.59539429 95.94861694 57.23071289 97.00805664 C58 99 58 99 57.8503418 101.10766602 C56.76381606 103.52559912 55.74041141 104.1148189 53.421875 105.3671875 C52.6798584 105.77493408 51.9378418 106.18268066 51.17333984 106.6027832 C50.3736377 107.02261475 49.57393555 107.44244629 48.75 107.875 C47.93096191 108.31481201 47.11192383 108.75462402 46.26806641 109.20776367 C28.72037933 118.54489174 7.40556932 128 -13 128 C-13.23373634 112.19707714 -13.41000623 96.39462173 -13.51812172 80.59039879 C-13.56965961 73.25189771 -13.63990162 65.91447132 -13.75439453 58.57666016 C-13.85415562 52.17994996 -13.91860137 45.78401799 -13.94088495 39.3865515 C-13.95390999 35.99948176 -13.98444446 32.61463797 -14.05730057 29.22828293 C-14.12982767 25.444299 -14.13989484 21.6649373 -14.13525391 17.88037109 C-14.17120667 16.76115265 -14.20715942 15.6419342 -14.24420166 14.48880005 C-14.20252828 11.35184793 -14.07369344 8.95042283 -13 6 C-9.24941863 2.47536895 -5.21449133 0 0 0 Z M9 62 C7.21169552 63.78830448 7.87151289 66.19581152 7.86105347 68.57641602 C7.8630777 69.35557373 7.86510193 70.13473145 7.8671875 70.9375 C7.86623077 71.732771 7.86527405 72.52804199 7.86428833 73.34741211 C7.86360657 75.0320646 7.86546057 76.71671971 7.86962891 78.40136719 C7.87497725 80.98899197 7.86968381 83.57644316 7.86328125 86.1640625 C7.86394203 87.79687539 7.8652232 89.42968816 7.8671875 91.0625 C7.86516327 91.84165771 7.86313904 92.62081543 7.86105347 93.42358398 C7.5416042 97.007942 7.5416042 97.007942 9 100 C15.09309044 100.06666401 21.08002165 98.71653041 26 95 C27.48118595 93.24596697 27.48118595 93.24596697 28 91 C25.71760026 83.4448907 20.46615332 76.3694507 16.25 69.75 C15.76635986 68.9866333 15.28271973 68.2232666 14.78442383 67.43676758 C14.32447021 66.73060303 13.8645166 66.02443848 13.390625 65.296875 C12.7723584 64.34312988 12.7723584 64.34312988 12.14160156 63.37011719 C11.76487305 62.91797852 11.38814453 62.46583984 11 62 C10.34 62 9.68 62 9 62 Z " fill="#010101" transform="translate(235,242)"/>
</svg>
