<?xml version="1.0" encoding="UTF-8"?>
<svg id="Layer_1" data-name="Layer 1" xmlns="http://www.w3.org/2000/svg" xmlns:xlink="http://www.w3.org/1999/xlink" viewBox="0 0 2709 416">
  <defs>
    <style>
      .cls-1 {
        fill: #fff;
      }

      .cls-2 {
        fill: none;
        stroke: #fff;
        stroke-miterlimit: 10;
        stroke-width: 4px;
      }
    </style>
  </defs>
  <g id="Title_Oultine" data-name="Title Oultine">
    <g id="blur">
      <image width="2460" height="299" xlink:href="Title1.png"/>
      <image width="1272" height="191" transform="translate(1437 225)" xlink:href="Title2.png"/>
    </g>
    <g>
      <g>
        <path class="cls-2" d="m38.43,235.83V38.82h197.01v123.13h-36.94l36.94,73.88h-49.25l-36.94-73.88h-61.56v73.88h-49.25Zm147.76-123.13v-24.63h-98.5v24.63h98.5Z"/>
        <path class="cls-2" d="m255.06,235.83V38.82h197.01v197.01h-197.01Zm147.76-49.25v-98.5h-98.5v98.5h98.5Z"/>
        <path class="cls-2" d="m471.7,235.83V38.82h197.01v49.25h-147.76v98.5h147.76v49.25h-197.01Z"/>
        <path class="cls-2" d="m688.33,235.83V38.82h49.25v73.88h86.19l12.31-12.31v-61.56h49.25v73.88l-24.63,24.63,24.63,24.63v73.88h-49.25v-61.56l-12.31-12.31h-86.19v73.88h-49.25Z"/>
        <path class="cls-2" d="m978.84,235.83v-49.25l-73.88-73.88V38.82h49.25v49.25l49.25,49.25,49.25-49.25v-49.25h49.25v73.88l-73.88,73.88v49.25h-49.25Z"/>
        <path class="cls-2" d="m1195.47,235.83V88.07h-73.88v-49.25h197.01v49.25h-73.88v147.76h-49.25Z"/>
        <path class="cls-2" d="m1338.22,235.83V38.82h197.01v197.01h-49.25v-73.88h-98.5v73.88h-49.25Zm147.76-123.13v-24.63h-98.5v24.63h98.5Z"/>
        <path class="cls-2" d="m1554.85,235.83V38.82h49.25l98.5,49.25v-49.25h49.25v197.01h-49.25v-98.5l-98.5-49.25v147.76h-49.25Z"/>
        <path class="cls-2" d="m1771.49,235.83V38.82h49.25v73.88h86.19l12.31-12.31v-61.56h49.25v73.88l-24.63,24.63,24.63,24.63v73.88h-49.25v-61.56l-12.31-12.31h-86.19v73.88h-49.25Z"/>
        <path class="cls-2" d="m1988.12,235.83V38.82h197.01v49.25h-147.76v24.63h147.76v49.25h-147.76v24.63h147.76v49.25h-197.01Z"/>
        <path class="cls-2" d="m2204.75,235.83V38.82h197.01v123.13h-36.94l36.94,73.88h-49.25l-36.94-73.88h-61.57v73.88h-49.25Zm147.76-123.13v-24.63h-98.5v24.63h98.5Z"/>
      </g>
      <g>
        <path class="cls-1" d="m1515.77,305.11h-16.91v-3.4c0-2.9-.17-4.73-.5-5.5-.33-.77-1.16-1.16-2.48-1.16-1.07,0-1.87.35-2.41,1.06-.54.71-.8,1.77-.8,3.19,0,1.92.13,3.33.4,4.23s1.07,1.88,2.41,2.95c1.34,1.07,4.09,2.63,8.24,4.68,5.54,2.71,9.18,5.26,10.91,7.65,1.73,2.39,2.6,5.87,2.6,10.44,0,5.1-.66,8.95-1.98,11.55-1.32,2.6-3.54,4.6-6.64,6-3.1,1.4-6.84,2.1-11.22,2.1-4.85,0-9-.76-12.45-2.27-3.45-1.51-5.82-3.56-7.11-6.14-1.29-2.58-1.94-6.49-1.94-11.72v-3.02h16.91v3.97c0,3.37.21,5.56.64,6.57s1.27,1.51,2.53,1.51c1.35,0,2.3-.34,2.83-1.02.54-.68.8-2.1.8-4.28,0-2.99-.35-4.87-1.04-5.62-.73-.76-4.43-2.99-11.1-6.71-5.61-3.15-9.02-6.01-10.25-8.57-1.23-2.57-1.84-5.61-1.84-9.14,0-5.01.66-8.7,1.98-11.08,1.32-2.38,3.57-4.21,6.73-5.5,3.17-1.29,6.84-1.94,11.03-1.94s7.69.53,10.61,1.58c2.91,1.06,5.15,2.45,6.71,4.18,1.56,1.73,2.5,3.34,2.83,4.82.33,1.48.5,3.79.5,6.94v3.64Z"/>
        <path class="cls-1" d="m1564.53,308.75h-18v-7.23c0-2.52-.21-4.23-.61-5.13-.41-.9-1.17-1.35-2.27-1.35s-1.84.39-2.22,1.18c-.38.79-.57,2.55-.57,5.29v29.57c0,2.24.28,3.91.85,5.03.57,1.12,1.4,1.68,2.5,1.68,1.29,0,2.17-.58,2.62-1.75.46-1.17.69-3.37.69-6.61v-7.46h17.01c-.03,5.01-.21,8.76-.54,11.27-.33,2.5-1.39,5.07-3.17,7.7s-4.1,4.61-6.97,5.95c-2.87,1.34-6.41,2.01-10.63,2.01-5.39,0-9.65-.92-12.8-2.76s-5.38-4.42-6.68-7.75c-1.31-3.32-1.96-8.04-1.96-14.15v-17.81c0-5.32.54-9.34,1.61-12.05,1.07-2.71,3.35-5.13,6.85-7.25,3.5-2.13,7.75-3.19,12.75-3.19s9.23,1.06,12.75,3.17c3.53,2.11,5.87,4.77,7.04,7.98,1.16,3.21,1.75,7.76,1.75,13.65Z"/>
        <path class="cls-1" d="m1589.28,285.08l-.76,8.24c2.77-5.9,6.79-9.03,12.05-9.38v22.06c-3.5,0-6.06.47-7.7,1.42-1.64.94-2.65,2.26-3.02,3.94-.38,1.69-.57,5.57-.57,11.65v24.75h-19.08v-62.69h19.08Z"/>
        <path class="cls-1" d="m1648,307.1v15.35c0,5.64-.28,9.77-.85,12.4-.57,2.63-1.78,5.09-3.64,7.37-1.86,2.28-4.24,3.97-7.16,5.05s-6.26,1.63-10.04,1.63c-4.22,0-7.79-.46-10.72-1.39-2.93-.93-5.2-2.33-6.83-4.2s-2.78-4.14-3.47-6.8c-.69-2.66-1.04-6.65-1.04-11.98v-16.06c0-5.83.63-10.38,1.89-13.65s3.53-5.91,6.8-7.89c3.28-1.98,7.46-2.98,12.57-2.98,4.28,0,7.96.64,11.03,1.91,3.07,1.28,5.44,2.94,7.11,4.98,1.67,2.05,2.81,4.16,3.42,6.33.61,2.17.92,5.48.92,9.92Zm-19.08-4.72c0-3.21-.17-5.24-.52-6.07-.35-.83-1.09-1.25-2.22-1.25s-1.89.42-2.27,1.25c-.38.83-.57,2.86-.57,6.07v28.3c0,2.96.19,4.89.57,5.79s1.12,1.35,2.22,1.35,1.88-.41,2.24-1.23c.36-.82.54-2.58.54-5.29v-28.91Z"/>
        <path class="cls-1" d="m1673.94,271.29v76.48h-19.65v-76.48h19.65Z"/>
        <path class="cls-1" d="m1700.44,271.29v76.48h-19.65v-76.48h19.65Z"/>
        <path class="cls-1" d="m1767.76,271.29v76.48h-19.08v-4.55c-1.83,1.89-3.75,3.31-5.76,4.26s-4.13,1.42-6.33,1.42c-2.96,0-5.53-.78-7.7-2.34-2.17-1.56-3.57-3.36-4.18-5.41s-.92-5.39-.92-10.02v-29.34c0-4.82.31-8.24.92-10.25.61-2.01,2.02-3.79,4.23-5.31,2.2-1.53,4.83-2.29,7.89-2.29,2.36,0,4.53.43,6.5,1.28,1.97.85,3.76,2.13,5.36,3.83v-17.77h19.08Zm-19.08,29.57c0-2.3-.2-3.84-.59-4.63-.39-.79-1.17-1.18-2.34-1.18s-1.9.35-2.29,1.06c-.39.71-.59,2.29-.59,4.75v30.71c0,2.55.19,4.23.57,5.03.38.8,1.1,1.21,2.17,1.21,1.23,0,2.05-.45,2.46-1.35s.61-3.09.61-6.59v-29.01Z"/>
        <path class="cls-1" d="m1817.78,307.1v15.35c0,5.64-.28,9.77-.85,12.4-.57,2.63-1.78,5.09-3.64,7.37-1.86,2.28-4.24,3.97-7.16,5.05s-6.26,1.63-10.04,1.63c-4.22,0-7.79-.46-10.72-1.39-2.93-.93-5.2-2.33-6.83-4.2s-2.78-4.14-3.47-6.8c-.69-2.66-1.04-6.65-1.04-11.98v-16.06c0-5.83.63-10.38,1.89-13.65s3.53-5.91,6.8-7.89c3.28-1.98,7.46-2.98,12.57-2.98,4.28,0,7.96.64,11.03,1.91,3.07,1.28,5.44,2.94,7.11,4.98,1.67,2.05,2.81,4.16,3.42,6.33.61,2.17.92,5.48.92,9.92Zm-19.08-4.72c0-3.21-.17-5.24-.52-6.07-.35-.83-1.09-1.25-2.22-1.25s-1.89.42-2.27,1.25c-.38.83-.57,2.86-.57,6.07v28.3c0,2.96.19,4.89.57,5.79s1.12,1.35,2.22,1.35,1.88-.41,2.24-1.23c.36-.82.54-2.58.54-5.29v-28.91Z"/>
        <path class="cls-1" d="m1885.76,285.08l-7.62,62.69h-20.71c-1.13-7.66-2.45-17.75-3.96-30.28-.52,5.51-1.23,11.07-2.14,16.68l-2.09,13.6h-20.76l-8.09-62.69h16.45c.13,1.64,1.52,13.6,4.17,35.9.21-2.29,1.64-14.26,4.29-35.9h15.8l3.86,35.9c.61-10.48,2.07-22.45,4.38-35.9h16.43Z"/>
        <path class="cls-1" d="m1908.25,285.08l-.33,5.78c1.39-2.3,3.08-4.03,5.08-5.18,2-1.15,4.31-1.73,6.92-1.73,3.27,0,5.95.77,8.03,2.31,2.08,1.54,3.42,3.49,4.02,5.83.6,2.35.9,6.26.9,11.74v43.93h-19.08v-43.41c0-4.31-.14-6.94-.43-7.89-.28-.94-1.07-1.42-2.36-1.42-1.35,0-2.21.54-2.55,1.63-.35,1.09-.52,3.99-.52,8.72v42.38h-19.08v-62.69h19.42Z"/>
        <path class="cls-1" d="m1976.61,276.72v9.87h5.15v9.92h-5.15v33.54c0,4.13.21,6.42.64,6.9.42.47,2.2.71,5.31.71v10.11h-7.7c-4.35,0-7.45-.18-9.31-.54-1.86-.36-3.5-1.2-4.91-2.5s-2.3-2.8-2.65-4.49c-.35-1.68-.52-5.65-.52-11.88v-31.84h-4.11v-9.92h4.11v-9.87h19.13Z"/>
        <path class="cls-1" d="m2029.14,307.1v15.35c0,5.64-.28,9.77-.85,12.4-.57,2.63-1.78,5.09-3.64,7.37-1.86,2.28-4.24,3.97-7.16,5.05s-6.26,1.63-10.04,1.63c-4.22,0-7.79-.46-10.72-1.39-2.93-.93-5.2-2.33-6.83-4.2s-2.78-4.14-3.47-6.8c-.69-2.66-1.04-6.65-1.04-11.98v-16.06c0-5.83.63-10.38,1.89-13.65s3.53-5.91,6.8-7.89c3.28-1.98,7.46-2.98,12.57-2.98,4.28,0,7.96.64,11.03,1.91,3.07,1.28,5.44,2.94,7.11,4.98,1.67,2.05,2.81,4.16,3.42,6.33.61,2.17.92,5.48.92,9.92Zm-19.08-4.72c0-3.21-.17-5.24-.52-6.07-.35-.83-1.09-1.25-2.22-1.25s-1.89.42-2.27,1.25c-.38.83-.57,2.86-.57,6.07v28.3c0,2.96.19,4.89.57,5.79s1.12,1.35,2.22,1.35,1.88-.41,2.24-1.23c.36-.82.54-2.58.54-5.29v-28.91Z"/>
        <path class="cls-1" d="m2071.56,271.29v18.11c1.58-1.83,3.33-3.2,5.27-4.1,1.94-.9,4.04-1.35,6.31-1.35,2.61,0,4.88.41,6.8,1.23,1.92.82,3.38,1.97,4.39,3.45,1.01,1.48,1.61,2.93,1.82,4.35.21,1.42.31,4.44.31,9.07v28.25c0,4.6-.31,8.02-.92,10.28-.61,2.25-2.06,4.2-4.32,5.86s-4.96,2.48-8.08,2.48c-2.24,0-4.32-.49-6.26-1.47-1.94-.98-3.71-2.45-5.32-4.4l-1.23,4.74h-17.86v-76.48h19.08Zm5.81,31.6c0-3.24-.21-5.36-.61-6.35-.41-.99-1.21-1.49-2.41-1.49s-1.92.43-2.27,1.3-.52,3.05-.52,6.54v27.02c0,3.37.2,5.53.59,6.47.39.94,1.17,1.42,2.34,1.42s1.98-.49,2.34-1.46c.36-.98.54-3.32.54-7.04v-26.41Z"/>
        <path class="cls-1" d="m2145.97,317.54h-24.71v13.56c0,2.83.2,4.66.61,5.48.41.82,1.2,1.23,2.36,1.23,1.45,0,2.42-.54,2.91-1.63.49-1.09.73-3.19.73-6.31v-8.27h18.09v4.63c0,3.87-.24,6.85-.73,8.93-.49,2.08-1.63,4.3-3.42,6.66s-4.07,4.13-6.83,5.31c-2.76,1.18-6.21,1.77-10.37,1.77s-7.59-.58-10.68-1.75c-3.09-1.17-5.49-2.76-7.2-4.79-1.72-2.03-2.91-4.27-3.57-6.71-.66-2.44-.99-5.99-.99-10.65v-18.28c0-5.48.74-9.8,2.22-12.97,1.48-3.17,3.91-5.59,7.28-7.27,3.37-1.68,7.24-2.53,11.62-2.53,5.35,0,9.77,1.02,13.25,3.05,3.48,2.03,5.92,4.72,7.32,8.08s2.1,8.07,2.1,14.15v8.31Zm-19.13-10.2v-4.58c0-3.24-.17-5.34-.52-6.28-.35-.94-1.06-1.42-2.13-1.42-1.32,0-2.14.4-2.46,1.2-.32.8-.47,2.97-.47,6.5v4.58h5.57Z"/>
        <path class="cls-1" d="m2195.57,285.08v48.28c0,6.52-.15,10.73-.45,12.64-.3,1.91-1.36,3.92-3.19,6.05-1.83,2.13-4.37,3.75-7.63,4.87-3.26,1.12-7.36,1.68-12.31,1.68-6.08,0-10.96-1.03-14.64-3.09s-5.59-6.12-5.72-12.16h18.52c0,2.77,1.01,4.16,3.02,4.16,1.45,0,2.41-.43,2.88-1.28.47-.85.71-2.63.71-5.34v-4.73c-1.64,1.48-3.36,2.61-5.17,3.36-1.81.76-3.71,1.14-5.69,1.14-3.43,0-6.26-.69-8.48-2.08-2.22-1.39-3.74-3.2-4.56-5.46-.82-2.25-1.23-5.46-1.23-9.61v-22.77c0-5.95,1.07-10.24,3.21-12.85,2.14-2.61,5.4-3.92,9.78-3.92,2.39,0,4.57.49,6.54,1.47,1.97.98,3.72,2.45,5.27,4.4l1.37-4.74h17.76Zm-19.13,16.63c0-2.87-.17-4.69-.5-5.48-.33-.79-1.06-1.18-2.2-1.18s-1.88.45-2.34,1.35c-.46.9-.68,2.67-.68,5.32v21.07c0,2.8.17,4.62.52,5.46.35.83,1.07,1.25,2.17,1.25,1.26,0,2.08-.5,2.46-1.51s.57-3.29.57-6.85v-19.42Z"/>
        <path class="cls-1" d="m2222.02,271.29v9.97h-19.65v-9.97h19.65Zm0,13.79v62.69h-19.65v-62.69h19.65Z"/>
        <path class="cls-1" d="m2248.29,285.08l-.33,5.78c1.39-2.3,3.08-4.03,5.08-5.18,2-1.15,4.31-1.73,6.92-1.73,3.27,0,5.95.77,8.03,2.31,2.08,1.54,3.42,3.49,4.02,5.83.6,2.35.9,6.26.9,11.74v43.93h-19.08v-43.41c0-4.31-.14-6.94-.43-7.89-.28-.94-1.07-1.42-2.36-1.42-1.35,0-2.21.54-2.55,1.63-.35,1.09-.52,3.99-.52,8.72v42.38h-19.08v-62.69h19.42Z"/>
        <path class="cls-1" d="m2339.75,317.54h-24.71v13.56c0,2.83.2,4.66.61,5.48.41.82,1.2,1.23,2.36,1.23,1.45,0,2.42-.54,2.91-1.63.49-1.09.73-3.19.73-6.31v-8.27h18.09v4.63c0,3.87-.24,6.85-.73,8.93-.49,2.08-1.63,4.3-3.42,6.66s-4.07,4.13-6.83,5.31c-2.76,1.18-6.21,1.77-10.37,1.77s-7.59-.58-10.68-1.75c-3.09-1.17-5.49-2.76-7.2-4.79-1.72-2.03-2.91-4.27-3.57-6.71-.66-2.44-.99-5.99-.99-10.65v-18.28c0-5.48.74-9.8,2.22-12.97,1.48-3.17,3.91-5.59,7.28-7.27,3.37-1.68,7.24-2.53,11.62-2.53,5.35,0,9.77,1.02,13.25,3.05,3.48,2.03,5.92,4.72,7.32,8.08s2.1,8.07,2.1,14.15v8.31Zm-19.13-10.2v-4.58c0-3.24-.17-5.34-.52-6.28-.35-.94-1.06-1.42-2.13-1.42-1.32,0-2.14.4-2.46,1.2-.32.8-.47,2.97-.47,6.5v4.58h5.57Z"/>
        <path class="cls-1" d="m2383.82,285.08l-7.61,29.95,9.21,32.74h-18.55c-1.84-8.27-3.24-15.39-4.19-21.35-1.27,7.45-2.65,14.57-4.14,21.35h-15.96l8.22-32.74-8.22-29.95h15.96c2.57,12.81,3.95,20.09,4.14,21.83,1.84-10.7,3.24-17.97,4.19-21.83h16.95Z"/>
        <path class="cls-1" d="m2407.35,285.08l-.33,5.54c1.7-2.24,3.57-3.91,5.62-5.02,2.05-1.1,4.28-1.66,6.71-1.66,2.96,0,5.52.8,7.68,2.39,2.16,1.59,3.5,3.42,4.04,5.5.54,2.08.8,5.61.8,10.58v26.41c0,5.7-.34,9.75-1.02,12.16-.68,2.41-2.06,4.33-4.16,5.76s-4.62,2.15-7.58,2.15c-2.36,0-4.55-.55-6.57-1.66s-3.86-2.74-5.53-4.92v14.37h-19.08v-71.62h19.42Zm5.43,18.23c0-3.87-.14-6.22-.42-7.04-.28-.82-1.07-1.23-2.36-1.23s-2.07.47-2.43,1.42c-.36.95-.54,3.23-.54,6.85v25.98c0,3.78.19,6.14.57,7.09.38.94,1.2,1.42,2.46,1.42s1.99-.43,2.29-1.3c.3-.87.45-2.97.45-6.31v-26.88Z"/>
        <path class="cls-1" d="m2457.8,271.29v76.48h-19.65v-76.48h19.65Z"/>
        <path class="cls-1" d="m2507.83,307.1v15.35c0,5.64-.28,9.77-.85,12.4-.57,2.63-1.78,5.09-3.64,7.37-1.86,2.28-4.24,3.97-7.16,5.05s-6.26,1.63-10.04,1.63c-4.22,0-7.79-.46-10.72-1.39-2.93-.93-5.2-2.33-6.83-4.2s-2.78-4.14-3.47-6.8c-.69-2.66-1.04-6.65-1.04-11.98v-16.06c0-5.83.63-10.38,1.89-13.65s3.53-5.91,6.8-7.89c3.28-1.98,7.46-2.98,12.57-2.98,4.28,0,7.96.64,11.03,1.91,3.07,1.28,5.44,2.94,7.11,4.98,1.67,2.05,2.81,4.16,3.42,6.33.61,2.17.92,5.48.92,9.92Zm-19.08-4.72c0-3.21-.17-5.24-.52-6.07-.35-.83-1.09-1.25-2.22-1.25s-1.89.42-2.27,1.25c-.38.83-.57,2.86-.57,6.07v28.3c0,2.96.19,4.89.57,5.79s1.12,1.35,2.22,1.35,1.88-.41,2.24-1.23c.36-.82.54-2.58.54-5.29v-28.91Z"/>
        <path class="cls-1" d="m2533.2,285.08l-.76,8.24c2.77-5.9,6.79-9.03,12.05-9.38v22.06c-3.5,0-6.06.47-7.7,1.42-1.64.94-2.65,2.26-3.02,3.94-.38,1.69-.57,5.57-.57,11.65v24.75h-19.08v-62.69h19.08Z"/>
        <path class="cls-1" d="m2568.39,271.29v9.97h-19.65v-9.97h19.65Zm0,13.79v62.69h-19.65v-62.69h19.65Z"/>
        <path class="cls-1" d="m2594.66,285.08l-.33,5.78c1.39-2.3,3.08-4.03,5.08-5.18,2-1.15,4.31-1.73,6.92-1.73,3.27,0,5.95.77,8.03,2.31,2.08,1.54,3.42,3.49,4.02,5.83.6,2.35.9,6.26.9,11.74v43.93h-19.08v-43.41c0-4.31-.14-6.94-.43-7.89-.28-.94-1.07-1.42-2.36-1.42-1.35,0-2.21.54-2.55,1.63-.35,1.09-.52,3.99-.52,8.72v42.38h-19.08v-62.69h19.42Z"/>
        <path class="cls-1" d="m2669.21,285.08v48.28c0,6.52-.15,10.73-.45,12.64-.3,1.91-1.36,3.92-3.19,6.05-1.83,2.13-4.37,3.75-7.63,4.87-3.26,1.12-7.36,1.68-12.31,1.68-6.08,0-10.96-1.03-14.64-3.09s-5.59-6.12-5.72-12.16h18.52c0,2.77,1.01,4.16,3.02,4.16,1.45,0,2.41-.43,2.88-1.28.47-.85.71-2.63.71-5.34v-4.73c-1.64,1.48-3.36,2.61-5.17,3.36-1.81.76-3.71,1.14-5.69,1.14-3.43,0-6.26-.69-8.48-2.08-2.22-1.39-3.74-3.2-4.56-5.46-.82-2.25-1.23-5.46-1.23-9.61v-22.77c0-5.95,1.07-10.24,3.21-12.85,2.14-2.61,5.4-3.92,9.78-3.92,2.39,0,4.57.49,6.54,1.47,1.97.98,3.72,2.45,5.27,4.4l1.37-4.74h17.76Zm-19.13,16.63c0-2.87-.17-4.69-.5-5.48-.33-.79-1.06-1.18-2.2-1.18s-1.88.45-2.34,1.35c-.46.9-.68,2.67-.68,5.32v21.07c0,2.8.17,4.62.52,5.46.35.83,1.07,1.25,2.17,1.25,1.26,0,2.08-.5,2.46-1.51s.57-3.29.57-6.85v-19.42Z"/>
      </g>
      <g>
        <path class="cls-2" d="m2433.48,237.39v-23.61h23.61v23.61h-23.61Z"/>
        <path class="cls-2" d="m2501.92,237.39v-70.83h-35.41v-23.61h94.44v23.61h-35.41v70.83h-23.61Z"/>
        <path class="cls-2" d="m2570.35,237.39v-94.44h23.61v35.41h41.32l5.9-5.9v-29.51h23.61v35.41l-11.8,11.8,11.8,11.8v35.41h-23.61v-29.51l-5.9-5.9h-41.32v35.41h-23.61Z"/>
      </g>
    </g>
  </g>
</svg>