<?xml version="1.0" encoding="UTF-8"?>
<svg id="Flat" xmlns="http://www.w3.org/2000/svg" version="1.1" viewBox="0 0 800 625.7">
  <defs>
    <style>
      .cls-1 {
        fill: #fff;
        stroke-width: 0px;
      }
    </style>
  </defs>
  <g id="SVGRepo_iconCarrier" data-name="SVGRepo iconCarrier">
    <path class="cls-1" d="M779.8,105c-6.9-26.7-26.2-48.4-51.8-58.4C605.6-.4,410.6,0,400,0c-10.6,0-205.6-.4-327.9,46.6-25.7,10-44.9,31.7-51.8,58.4C11,140.4,0,205.3,0,312.8s11,172.4,20.2,207.9c6.9,26.7,26.2,48.4,51.8,58.4,117.2,45,300.8,46.6,325.6,46.6,2.2,0,2.5,0,4.7,0,24.8,0,208.4-1.6,325.6-46.6,25.7-10,44.9-31.7,51.8-58.4,9.2-35.5,20.2-100.3,20.2-207.9s-11-172.4-20.2-207.9ZM522.2,324.7l-171.4,114.3c-6.6,4.4-15.4,2.6-19.8-4-1.6-2.3-2.4-5.1-2.4-7.9v-228.6c0-7.9,6.4-14.3,14.3-14.3,2.8,0,5.6.8,7.9,2.4l171.4,114.3c6.6,4.4,8.3,13.2,4,19.8-1,1.6-2.4,2.9-4,4Z"/>
  </g>
</svg>