<?xml version="1.0" encoding="UTF-8"?>
<svg id="Layer_2" data-name="Layer 2" xmlns="http://www.w3.org/2000/svg" xmlns:xlink="http://www.w3.org/1999/xlink" viewBox="0 0 1631.69 189.44">
  <defs>
    <style>
      .cls-1 {
        filter: url(#outer-glow-3);
      }

      .cls-2 {
        filter: url(#outer-glow-1);
      }

      .cls-3 {
        fill: #fff;
        stroke-width: 0px;
      }

      .cls-4 {
        filter: url(#outer-glow-2);
      }
    </style>
    <filter id="outer-glow-1" filterUnits="userSpaceOnUse">
      <feOffset dx="0" dy="0"/>
      <feGaussianBlur result="blur" stdDeviation="5"/>
      <feFlood flood-color="#fff" flood-opacity=".75"/>
      <feComposite in2="blur" operator="in"/>
      <feComposite in="SourceGraphic"/>
    </filter>
    <filter id="outer-glow-2" filterUnits="userSpaceOnUse">
      <feOffset dx="0" dy="0"/>
      <feGaussianBlur result="blur-2" stdDeviation="5"/>
      <feFlood flood-color="#fff" flood-opacity=".75"/>
      <feComposite in2="blur-2" operator="in"/>
      <feComposite in="SourceGraphic"/>
    </filter>
    <filter id="outer-glow-3" filterUnits="userSpaceOnUse">
      <feOffset dx="0" dy="0"/>
      <feGaussianBlur result="blur-3" stdDeviation="5"/>
      <feFlood flood-color="#fff" flood-opacity=".75"/>
      <feComposite in2="blur-3" operator="in"/>
      <feComposite in="SourceGraphic"/>
    </filter>
  </defs>
  <g id="Layer_1-2" data-name="Layer 1">
    <g id="SVG">
      <g class="cls-2">
        <path class="cls-3" d="m116.97,4.5v68.04h-24.07l2.17,4.34,20.04,40.08h-22.91l-21.38-42.77-.83-1.66H28.12v44.43H4.5V4.5h112.47M28.12,48.93h65.23v-20.81H28.12v20.81M119.97,1.5H1.5v118.47h29.62v-44.43h37.02l22.21,44.43h29.62l-22.21-44.43h22.21V1.5h0ZM31.12,45.93v-14.81h59.23v14.81H31.12Z"/>
        <path class="cls-3" d="m247.24,4.5v112.47h-112.47V4.5h112.47m-88.85,88.85h65.23V28.12h-65.23v65.23M250.24,1.5h-118.47v118.47h118.47V1.5h0Zm-88.85,88.85V31.12h59.23v59.23h-59.23Z"/>
        <path class="cls-3" d="m377.51,4.5v23.62h-88.85v65.23h88.85v23.62h-112.47V4.5h112.47m3-3h-118.47v118.47h118.47v-29.62h-88.85V31.12h88.85V1.5h0Z"/>
        <path class="cls-3" d="m507.78,4.5v40.18l-13.93,13.93-2.12,2.12,2.12,2.12,13.93,13.93v40.18h-23.62v-35.26l-.88-.88-7.4-7.4-.88-.88h-56.07v44.43h-23.62V4.5h23.62v44.43h56.07l.88-.88,7.4-7.4.88-.88V4.5h23.62m3-3h-29.62v37.02l-7.4,7.4h-51.83V1.5h-29.62v118.47h29.62v-44.43h51.83l7.4,7.4v37.02h29.62v-44.43l-14.81-14.81,14.81-14.81V1.5h0Z"/>
        <path class="cls-3" d="m638.05,4.5v40.18l-43.55,43.55-.88.88v27.86h-23.62v-27.86l-.88-.88-43.55-43.55V4.5h23.62v27.86l.88.88,29.62,29.62,2.12,2.12,2.12-2.12,29.62-29.62.88-.88V4.5h23.62m3-3h-29.62v29.62l-29.62,29.62-29.62-29.62V1.5h-29.62v44.43l44.43,44.43v29.62h29.62v-29.62l44.43-44.43V1.5h0Z"/>
        <path class="cls-3" d="m768.32,4.5v23.62h-44.43v88.85h-23.62V28.12h-44.43V4.5h112.47m3-3h-118.47v29.62h44.43v88.85h29.62V31.12h44.43V1.5h0Z"/>
        <path class="cls-3" d="m898.59,4.5v112.47h-23.62v-44.43h-65.23v44.43h-23.62V4.5h112.47m-88.85,44.43h65.23v-20.81h-65.23v20.81M901.59,1.5h-118.47v118.47h29.62v-44.43h59.23v44.43h29.62V1.5h0Zm-88.85,44.43v-14.81h59.23v14.81h-59.23Z"/>
        <path class="cls-3" d="m1028.86,4.5v112.47h-23.62v-58.09l-1.66-.83-59.23-29.62-4.34-2.17v90.71h-23.62V4.5h25.91l58.6,29.3,4.34,2.17V4.5h23.62m3-3h-29.62v29.62l-59.23-29.62h-29.62v118.47h29.62V31.12l59.23,29.62v59.23h29.62V1.5h0Z"/>
        <path class="cls-3" d="m1159.13,4.5v40.18l-13.93,13.93-2.12,2.12,2.12,2.12,13.93,13.93v40.18h-23.62v-35.26l-.88-.88-7.4-7.4-.88-.88h-56.07v44.43h-23.62V4.5h23.62v44.43h56.07l.88-.88,7.4-7.4.88-.88V4.5h23.62m3-3h-29.62v37.02l-7.4,7.4h-51.83V1.5h-29.62v118.47h29.62v-44.43h51.83l7.4,7.4v37.02h29.62v-44.43l-14.81-14.81,14.81-14.81V1.5h0Z"/>
        <path class="cls-3" d="m1289.4,4.5v23.62h-88.85v20.81h88.85v23.62h-88.85v20.81h88.85v23.62h-112.47V4.5h112.47m3-3h-118.47v118.47h118.47v-29.62h-88.85v-14.81h88.85v-29.62h-88.85v-14.81h88.85V1.5h0Z"/>
        <path class="cls-3" d="m1419.67,4.5v68.04h-24.07l2.17,4.34,20.04,40.08h-22.91l-21.38-42.77-.83-1.66h-41.88v44.43h-23.62V4.5h112.47m-88.85,44.43h65.23v-20.81h-65.23v20.81M1422.67,1.5h-118.47v118.47h29.62v-44.43h37.02l22.21,44.43h29.62l-22.21-44.43h22.21V1.5h0Zm-88.85,44.43v-14.81h59.23v14.81h-59.23Z"/>
      </g>
      <g class="cls-4">
        <path class="cls-3" d="m818.74,151.75h-11.92v-2.4c0-2.04-.12-3.33-.35-3.88-.23-.54-.82-.82-1.75-.82-.75,0-1.32.25-1.7.75-.38.5-.57,1.25-.57,2.25,0,1.35.09,2.35.28,2.98.19.63.75,1.33,1.7,2.08.94.75,2.88,1.85,5.81,3.3,3.91,1.91,6.47,3.71,7.69,5.39,1.22,1.69,1.83,4.14,1.83,7.36,0,3.6-.47,6.31-1.4,8.14-.93,1.83-2.49,3.24-4.68,4.23-2.19.99-4.82,1.48-7.91,1.48-3.42,0-6.34-.53-8.77-1.6-2.43-1.07-4.1-2.51-5.01-4.33-.91-1.82-1.37-4.57-1.37-8.26v-2.13h11.92v2.8c0,2.38.15,3.92.45,4.63.3.71.89,1.07,1.78,1.07.95,0,1.62-.24,2-.72s.57-1.48.57-3.01c0-2.11-.24-3.43-.73-3.96-.51-.53-3.12-2.11-7.82-4.73-3.95-2.22-6.36-4.23-7.23-6.04-.87-1.81-1.3-3.96-1.3-6.44,0-3.53.47-6.13,1.4-7.81s2.51-2.97,4.74-3.88,4.82-1.37,7.77-1.37,5.42.37,7.48,1.12c2.05.74,3.63,1.73,4.73,2.95,1.1,1.22,1.76,2.35,2,3.4.23,1.04.35,2.67.35,4.89v2.56Z"/>
        <path class="cls-3" d="m853.1,154.32h-12.69v-5.09c0-1.78-.14-2.98-.43-3.61-.29-.63-.82-.95-1.6-.95s-1.3.28-1.56.83c-.27.56-.4,1.8-.4,3.73v20.84c0,1.58.2,2.76.6,3.55.4.79.99,1.18,1.76,1.18.91,0,1.53-.41,1.85-1.23.32-.82.48-2.37.48-4.66v-5.26h11.99c-.02,3.53-.15,6.18-.38,7.94-.23,1.76-.98,3.57-2.23,5.43-1.25,1.85-2.89,3.25-4.91,4.2-2.02.94-4.52,1.42-7.49,1.42-3.8,0-6.8-.65-9.02-1.95-2.22-1.3-3.79-3.12-4.71-5.46-.92-2.34-1.38-5.67-1.38-9.97v-12.55c0-3.75.38-6.58,1.13-8.49.75-1.91,2.36-3.61,4.83-5.11s5.46-2.25,8.99-2.25,6.5.74,8.99,2.23c2.49,1.49,4.14,3.36,4.96,5.63.82,2.26,1.23,5.47,1.23,9.62Z"/>
        <path class="cls-3" d="m870.55,137.64l-.53,5.81c1.95-4.16,4.78-6.36,8.49-6.61v15.55c-2.46,0-4.27.33-5.43,1-1.15.67-1.87,1.59-2.13,2.78-.27,1.19-.4,3.92-.4,8.21v17.45h-13.45v-44.18h13.45Z"/>
        <path class="cls-3" d="m911.93,153.15v10.82c0,3.97-.2,6.89-.6,8.74s-1.25,3.58-2.56,5.19-2.99,2.8-5.04,3.56c-2.05.77-4.41,1.15-7.08,1.15-2.97,0-5.49-.33-7.56-.98-2.06-.65-3.67-1.64-4.81-2.96-1.14-1.32-1.96-2.92-2.45-4.79-.49-1.88-.73-4.69-.73-8.44v-11.32c0-4.11.44-7.31,1.33-9.62.89-2.31,2.49-4.16,4.79-5.56s5.26-2.1,8.86-2.1c3.02,0,5.61.45,7.77,1.35,2.17.9,3.83,2.07,5.01,3.51,1.18,1.44,1.98,2.93,2.41,4.46.43,1.53.65,3.86.65,6.99Zm-13.45-3.33c0-2.26-.12-3.69-.37-4.28-.24-.59-.77-.88-1.56-.88s-1.33.29-1.6.88c-.27.59-.4,2.01-.4,4.28v19.94c0,2.09.13,3.45.4,4.08s.79.95,1.56.95,1.33-.29,1.58-.87c.25-.58.38-1.82.38-3.73v-20.38Z"/>
        <path class="cls-3" d="m930.21,127.91v53.91h-13.85v-53.91h13.85Z"/>
        <path class="cls-3" d="m948.89,127.91v53.91h-13.85v-53.91h13.85Z"/>
        <path class="cls-3" d="m996.34,127.91v53.91h-13.45v-3.21c-1.29,1.33-2.64,2.34-4.06,3-1.42.67-2.91,1-4.46,1-2.09,0-3.9-.55-5.43-1.65-1.53-1.1-2.51-2.37-2.95-3.81s-.65-3.8-.65-7.06v-20.68c0-3.4.22-5.8.65-7.23.43-1.42,1.43-2.67,2.98-3.75,1.55-1.08,3.41-1.61,5.56-1.61,1.67,0,3.19.3,4.58.9,1.39.6,2.65,1.5,3.78,2.7v-12.53h13.45Zm-13.45,20.84c0-1.62-.14-2.71-.42-3.26-.28-.55-.83-.83-1.65-.83s-1.34.25-1.61.75c-.28.5-.42,1.62-.42,3.35v21.64c0,1.8.13,2.98.4,3.55.27.57.78.85,1.53.85.87,0,1.44-.32,1.73-.95.29-.63.43-2.18.43-4.64v-20.44Z"/>
        <path class="cls-3" d="m1031.6,153.15v10.82c0,3.97-.2,6.89-.6,8.74s-1.25,3.58-2.56,5.19c-1.31,1.61-2.99,2.8-5.04,3.56-2.05.77-4.41,1.15-7.08,1.15-2.97,0-5.49-.33-7.56-.98-2.06-.65-3.67-1.64-4.81-2.96-1.14-1.32-1.96-2.92-2.45-4.79-.49-1.88-.73-4.69-.73-8.44v-11.32c0-4.11.44-7.31,1.33-9.62.89-2.31,2.49-4.16,4.79-5.56s5.26-2.1,8.86-2.1c3.02,0,5.61.45,7.77,1.35,2.16.9,3.83,2.07,5.01,3.51,1.18,1.44,1.98,2.93,2.41,4.46.43,1.53.65,3.86.65,6.99Zm-13.45-3.33c0-2.26-.12-3.69-.37-4.28-.25-.59-.77-.88-1.57-.88s-1.33.29-1.6.88c-.27.59-.4,2.01-.4,4.28v19.94c0,2.09.13,3.45.4,4.08.27.63.79.95,1.57.95s1.33-.29,1.58-.87c.25-.58.38-1.82.38-3.73v-20.38Z"/>
        <path class="cls-3" d="m1079.51,137.64l-5.37,44.18h-14.6c-.79-5.4-1.72-12.51-2.79-21.34-.37,3.89-.87,7.8-1.51,11.75l-1.48,9.59h-14.63l-5.7-44.18h11.59c.09,1.15,1.07,9.59,2.94,25.3.15-1.62,1.15-10.05,3.02-25.3h11.14l2.72,25.3c.43-7.39,1.46-15.82,3.08-25.3h11.58Z"/>
        <path class="cls-3" d="m1095.36,137.64l-.23,4.07c.98-1.62,2.17-2.84,3.58-3.65,1.41-.81,3.04-1.22,4.88-1.22,2.31,0,4.2.54,5.66,1.63,1.46,1.09,2.41,2.46,2.83,4.11.42,1.65.63,4.41.63,8.27v30.96h-13.45v-30.6c0-3.04-.1-4.89-.3-5.56-.2-.67-.75-1-1.67-1s-1.55.38-1.8,1.15-.37,2.81-.37,6.14v29.87h-13.45v-44.18h13.68Z"/>
        <path class="cls-3" d="m1143.54,131.74v6.96h3.63v6.99h-3.63v23.64c0,2.91.15,4.53.45,4.86s1.55.5,3.75.5v7.12h-5.43c-3.06,0-5.25-.13-6.56-.38s-2.46-.84-3.46-1.76c-1-.92-1.62-1.98-1.86-3.16s-.37-3.98-.37-8.37v-22.44h-2.9v-6.99h2.9v-6.96h13.49Z"/>
        <path class="cls-3" d="m1180.56,153.15v10.82c0,3.97-.2,6.89-.6,8.74s-1.25,3.58-2.56,5.19c-1.31,1.61-2.99,2.8-5.04,3.56-2.05.77-4.41,1.15-7.08,1.15-2.97,0-5.49-.33-7.56-.98-2.06-.65-3.67-1.64-4.81-2.96-1.14-1.32-1.96-2.92-2.45-4.79-.49-1.88-.73-4.69-.73-8.44v-11.32c0-4.11.44-7.31,1.33-9.62.89-2.31,2.49-4.16,4.79-5.56s5.26-2.1,8.86-2.1c3.02,0,5.61.45,7.77,1.35,2.16.9,3.83,2.07,5.01,3.51,1.18,1.44,1.98,2.93,2.41,4.46.43,1.53.65,3.86.65,6.99Zm-13.45-3.33c0-2.26-.12-3.69-.37-4.28-.25-.59-.77-.88-1.57-.88s-1.33.29-1.6.88c-.27.59-.4,2.01-.4,4.28v19.94c0,2.09.13,3.45.4,4.08.27.63.79.95,1.57.95s1.33-.29,1.58-.87c.25-.58.38-1.82.38-3.73v-20.38Z"/>
        <path class="cls-3" d="m1210.46,127.91v12.76c1.11-1.29,2.35-2.25,3.71-2.89,1.37-.63,2.85-.95,4.45-.95,1.84,0,3.44.29,4.79.87,1.35.58,2.39,1.39,3.1,2.43.71,1.04,1.14,2.06,1.28,3.06.14,1,.22,3.13.22,6.39v19.91c0,3.24-.22,5.66-.65,7.24-.43,1.59-1.45,2.96-3.05,4.13-1.6,1.17-3.5,1.75-5.69,1.75-1.58,0-3.05-.34-4.41-1.03s-2.61-1.72-3.75-3.1l-.87,3.34h-12.59v-53.91h13.45Zm4.1,22.28c0-2.29-.14-3.78-.43-4.48-.29-.7-.85-1.05-1.7-1.05s-1.35.31-1.6.92c-.25.61-.37,2.15-.37,4.61v19.04c0,2.38.14,3.9.42,4.56.28.67.83,1,1.65,1s1.39-.34,1.65-1.03c.25-.69.38-2.34.38-4.96v-18.61Z"/>
        <path class="cls-3" d="m1262.91,160.51h-17.41v9.56c0,2,.14,3.29.43,3.86.29.58.84.87,1.66.87,1.02,0,1.7-.38,2.05-1.15.34-.77.52-2.25.52-4.45v-5.83h12.75v3.26c0,2.73-.17,4.83-.52,6.29-.34,1.46-1.15,3.03-2.41,4.69-1.26,1.67-2.87,2.91-4.81,3.75-1.94.83-4.38,1.25-7.31,1.25s-5.35-.41-7.52-1.23c-2.18-.82-3.87-1.95-5.08-3.38s-2.05-3.01-2.51-4.73c-.47-1.72-.7-4.22-.7-7.51v-12.89c0-3.86.52-6.91,1.56-9.14,1.04-2.23,2.75-3.94,5.13-5.13s5.11-1.78,8.19-1.78c3.77,0,6.89.72,9.34,2.15,2.45,1.43,4.17,3.33,5.16,5.69.99,2.36,1.48,5.69,1.48,9.97v5.86Zm-13.49-7.19v-3.23c0-2.29-.12-3.76-.37-4.43s-.74-1-1.5-1c-.93,0-1.51.28-1.73.85-.22.57-.33,2.09-.33,4.58v3.23h3.93Z"/>
        <path class="cls-3" d="m1297.87,137.64v34.03c0,4.59-.11,7.56-.32,8.91s-.96,2.76-2.25,4.26c-1.29,1.5-3.08,2.64-5.38,3.43-2.3.79-5.19,1.18-8.67,1.18-4.28,0-7.72-.73-10.32-2.18-2.6-1.45-3.94-4.31-4.03-8.57h13.05c0,1.95.71,2.93,2.13,2.93,1.02,0,1.7-.3,2.03-.9.33-.6.5-1.86.5-3.77v-3.33c-1.15,1.05-2.37,1.84-3.65,2.37-1.28.53-2.61.8-4.01.8-2.42,0-4.41-.49-5.98-1.47-1.56-.98-2.64-2.26-3.21-3.85-.58-1.59-.87-3.84-.87-6.78v-16.05c0-4.2.75-7.21,2.26-9.06,1.51-1.84,3.81-2.76,6.89-2.76,1.69,0,3.22.34,4.61,1.03,1.39.69,2.62,1.72,3.71,3.1l.96-3.34h12.52Zm-13.48,11.72c0-2.02-.12-3.31-.35-3.86-.23-.55-.75-.83-1.55-.83s-1.33.32-1.65.95c-.32.63-.48,1.88-.48,3.75v14.85c0,1.98.12,3.26.37,3.85s.75.88,1.53.88c.89,0,1.46-.35,1.73-1.07.27-.71.4-2.32.4-4.83v-13.68Z"/>
        <path class="cls-3" d="m1316.51,127.91v7.03h-13.85v-7.03h13.85Zm0,9.72v44.18h-13.85v-44.18h13.85Z"/>
        <path class="cls-3" d="m1335.02,137.64l-.23,4.07c.98-1.62,2.17-2.84,3.58-3.65,1.41-.81,3.04-1.22,4.88-1.22,2.31,0,4.2.54,5.66,1.63,1.46,1.09,2.41,2.46,2.83,4.11.42,1.65.63,4.41.63,8.27v30.96h-13.45v-30.6c0-3.04-.1-4.89-.3-5.56-.2-.67-.75-1-1.67-1s-1.55.38-1.8,1.15-.37,2.81-.37,6.14v29.87h-13.45v-44.18h13.68Z"/>
        <path class="cls-3" d="m1399.49,160.51h-17.41v9.56c0,2,.14,3.29.43,3.86.29.58.84.87,1.67.87,1.02,0,1.7-.38,2.05-1.15.34-.77.52-2.25.52-4.45v-5.83h12.75v3.26c0,2.73-.17,4.83-.52,6.29-.34,1.46-1.15,3.03-2.41,4.69-1.26,1.67-2.87,2.91-4.81,3.75-1.94.83-4.38,1.25-7.31,1.25s-5.35-.41-7.53-1.23c-2.18-.82-3.87-1.95-5.08-3.38-1.21-1.43-2.05-3.01-2.51-4.73-.47-1.72-.7-4.22-.7-7.51v-12.89c0-3.86.52-6.91,1.56-9.14,1.04-2.23,2.75-3.94,5.13-5.13,2.38-1.19,5.11-1.78,8.19-1.78,3.77,0,6.89.72,9.34,2.15,2.45,1.43,4.17,3.33,5.16,5.69.99,2.36,1.48,5.69,1.48,9.97v5.86Zm-13.49-7.19v-3.23c0-2.29-.12-3.76-.37-4.43s-.74-1-1.5-1c-.93,0-1.51.28-1.73.85-.22.57-.33,2.09-.33,4.58v3.23h3.93Z"/>
        <path class="cls-3" d="m1430.55,137.64l-5.36,21.11,6.49,23.07h-13.08c-1.3-5.83-2.28-10.84-2.96-15.05-.9,5.25-1.87,10.27-2.92,15.05h-11.25l5.79-23.07-5.79-21.11h11.25c1.81,9.03,2.79,14.16,2.92,15.38,1.3-7.54,2.28-12.67,2.96-15.38h11.95Z"/>
        <path class="cls-3" d="m1447.13,137.64l-.23,3.9c1.2-1.58,2.52-2.76,3.96-3.54,1.44-.78,3.02-1.17,4.73-1.17,2.09,0,3.89.56,5.41,1.68,1.52,1.12,2.47,2.41,2.85,3.88.38,1.46.57,3.95.57,7.46v18.61c0,4.02-.24,6.88-.72,8.57-.48,1.7-1.45,3.05-2.93,4.06-1.48,1.01-3.26,1.51-5.34,1.51-1.67,0-3.21-.39-4.63-1.17s-2.72-1.93-3.9-3.47v10.13h-13.45v-50.48h13.68Zm3.83,12.85c0-2.73-.1-4.38-.3-4.96-.2-.58-.75-.87-1.67-.87s-1.46.33-1.71,1-.38,2.28-.38,4.83v18.31c0,2.66.13,4.33.4,4.99.27.67.84,1,1.73,1s1.4-.3,1.62-.92c.21-.61.32-2.09.32-4.44v-18.95Z"/>
        <path class="cls-3" d="m1482.69,127.91v53.91h-13.85v-53.91h13.85Z"/>
        <path class="cls-3" d="m1517.95,153.15v10.82c0,3.97-.2,6.89-.6,8.74s-1.25,3.58-2.56,5.19c-1.31,1.61-2.99,2.8-5.04,3.56s-4.41,1.15-7.08,1.15c-2.97,0-5.49-.33-7.56-.98-2.06-.65-3.67-1.64-4.81-2.96-1.14-1.32-1.96-2.92-2.45-4.79-.49-1.88-.73-4.69-.73-8.44v-11.32c0-4.11.44-7.31,1.33-9.62.89-2.31,2.49-4.16,4.79-5.56s5.26-2.1,8.86-2.1c3.02,0,5.61.45,7.78,1.35,2.16.9,3.83,2.07,5.01,3.51,1.18,1.44,1.98,2.93,2.41,4.46.43,1.53.65,3.86.65,6.99Zm-13.45-3.33c0-2.26-.12-3.69-.37-4.28-.24-.59-.77-.88-1.56-.88s-1.33.29-1.6.88c-.27.59-.4,2.01-.4,4.28v19.94c0,2.09.13,3.45.4,4.08s.79.95,1.57.95,1.33-.29,1.58-.87c.25-.58.38-1.82.38-3.73v-20.38Z"/>
        <path class="cls-3" d="m1535.83,137.64l-.53,5.81c1.95-4.16,4.78-6.36,8.49-6.61v15.55c-2.46,0-4.27.33-5.43,1s-1.86,1.59-2.13,2.78c-.27,1.19-.4,3.92-.4,8.21v17.45h-13.45v-44.18h13.45Z"/>
        <path class="cls-3" d="m1560.64,127.91v7.03h-13.85v-7.03h13.85Zm0,9.72v44.18h-13.85v-44.18h13.85Z"/>
        <path class="cls-3" d="m1579.15,137.64l-.23,4.07c.98-1.62,2.17-2.84,3.58-3.65,1.41-.81,3.04-1.22,4.88-1.22,2.31,0,4.2.54,5.66,1.63,1.46,1.09,2.41,2.46,2.83,4.11.42,1.65.63,4.41.63,8.27v30.96h-13.45v-30.6c0-3.04-.1-4.89-.3-5.56-.2-.67-.75-1-1.67-1s-1.55.38-1.8,1.15-.37,2.81-.37,6.14v29.87h-13.45v-44.18h13.68Z"/>
        <path class="cls-3" d="m1631.69,137.64v34.03c0,4.59-.11,7.56-.32,8.91s-.96,2.76-2.25,4.26c-1.29,1.5-3.08,2.64-5.38,3.43-2.3.79-5.19,1.18-8.67,1.18-4.28,0-7.72-.73-10.32-2.18-2.6-1.45-3.94-4.31-4.03-8.57h13.05c0,1.95.71,2.93,2.13,2.93,1.02,0,1.7-.3,2.03-.9.33-.6.5-1.86.5-3.77v-3.33c-1.15,1.05-2.37,1.84-3.65,2.37-1.28.53-2.61.8-4.01.8-2.42,0-4.41-.49-5.98-1.47-1.56-.98-2.64-2.26-3.21-3.85-.58-1.59-.87-3.84-.87-6.78v-16.05c0-4.2.75-7.21,2.26-9.06,1.51-1.84,3.81-2.76,6.89-2.76,1.69,0,3.22.34,4.61,1.03,1.39.69,2.62,1.72,3.71,3.1l.96-3.34h12.52Zm-13.48,11.72c0-2.02-.12-3.31-.35-3.86-.23-.55-.75-.83-1.55-.83s-1.33.32-1.65.95c-.32.63-.48,1.88-.48,3.75v14.85c0,1.98.12,3.26.37,3.85s.75.88,1.53.88c.89,0,1.46-.35,1.73-1.07.27-.71.4-2.32.4-4.83v-13.68Z"/>
      </g>
      <g class="cls-1">
        <path class="cls-3" d="m1451.7,108.73v9.24h-9.24v-9.24h9.24m2-2h-13.24v13.24h13.24v-13.24h0Z"/>
        <path class="cls-3" d="m1509.93,69.01v48.96h-9.24v-25.71l-1.11-.55-26.48-13.24-2.89-1.45v40.95h-9.24v-48.96h10.77l26.06,13.03,2.89,1.45v-14.47h9.24m2-2h-13.24v13.24l-26.48-13.24h-13.24v52.96h13.24v-39.72l26.48,13.24v26.48h13.24v-52.96h0Z"/>
        <path class="cls-3" d="m1568.16,69.01v9.24h-39.72v10.62h39.72v9.24h-39.72v10.62h39.72v9.24h-48.96v-48.96h48.96m2-2h-52.96v52.96h52.96v-13.24h-39.72v-6.62h39.72v-13.24h-39.72v-6.62h39.72v-13.24h0Z"/>
        <path class="cls-3" d="m1626.39,69.01v9.24h-19.86v39.72h-9.24v-39.72h-19.86v-9.24h48.96m2-2h-52.96v13.24h19.86v39.72h13.24v-39.72h19.86v-13.24h0Z"/>
      </g>
      <g>
        <path class="cls-3" d="m1484.15,52.04c-1.36-.06-2.51-.57-3.45-1.55-1.03-1.07-1.54-2.45-1.51-4.16.02-1.63.52-3.05,1.52-4.29,1.18-1.45,2.77-2.14,4.76-2.05,1.47.06,2.61.7,3.43,1.91.73,1.09,1.07,2.42,1,3.99-.07,1.71-.59,3.14-1.55,4.31-1.08,1.3-2.48,1.92-4.2,1.84Zm1.05-9.14c-.9-.05-1.63.34-2.19,1.14-.47.68-.73,1.49-.76,2.42-.04.88.18,1.57.66,2.06.38.39.84.6,1.37.62.64.03,1.2-.17,1.69-.58.56-.48.87-1.16.95-2.02.2-2.36-.38-3.58-1.71-3.64Z"/>
        <path class="cls-3" d="m1497.23,40.6c.99-.05,1.7-.06,2.12-.04,1.37.06,2.04.56,2,1.5-.04.97-.79,1.4-2.25,1.3-.46-.03-1.17-.03-2.11,0-.06.78-.11,1.77-.15,2.98-.04,1.74-.07,2.72-.08,2.97-.06,1.34-.19,2.41-.39,3.19-.2.78-.71,1.15-1.51,1.12-.41-.02-.76-.17-1.06-.44-.29-.28-.43-.62-.42-1.02,0-.09.01-.19.03-.27.22-1.04.35-2.03.39-2.95l.23-5.51c-.13,0-.38.02-.73.06-.28.03-.5.03-.64.03-.45-.02-.82-.16-1.1-.44-.28-.27-.42-.63-.4-1.07.03-.68.41-1.12,1.14-1.3.33-.08.97-.12,1.94-.11.01-.13.08-.54.2-1.24.28-1.63.77-2.83,1.49-3.6.89-.96,2.22-1.41,3.99-1.33,1.34.06,2,.57,1.96,1.53-.04.96-.69,1.41-1.93,1.35-.89-.04-1.55.25-1.98.86-.32.45-.55,1.17-.7,2.15l-.05.32Z"/>
        <path class="cls-3" d="m1508.7,41.09c.99-.05,1.7-.06,2.12-.04,1.38.06,2.04.56,2,1.5-.04.97-.79,1.4-2.25,1.3-.46-.03-1.17-.03-2.11,0-.06.78-.11,1.77-.15,2.98-.04,1.74-.07,2.72-.08,2.97-.06,1.34-.19,2.41-.39,3.19s-.7,1.15-1.5,1.12c-.41-.02-.77-.17-1.06-.44-.29-.28-.43-.62-.42-1.02,0-.09.01-.19.03-.27.22-1.04.35-2.03.39-2.95l.23-5.51c-.13,0-.38.02-.73.06-.28.03-.49.03-.64.03-.45-.02-.81-.16-1.1-.44-.28-.27-.42-.63-.4-1.07.03-.68.41-1.12,1.14-1.3.33-.08.97-.12,1.94-.11.01-.13.08-.55.2-1.24.27-1.63.77-2.83,1.49-3.6.9-.96,2.22-1.41,3.99-1.33,1.34.06,2,.57,1.96,1.53-.04.96-.69,1.41-1.93,1.35-.89-.04-1.55.25-1.98.85-.32.45-.55,1.17-.7,2.15l-.05.32Z"/>
        <path class="cls-3" d="m1518.13,47.65c-.02.42-.03,1.09-.05,2.02-.01.93-.03,1.6-.05,2.02-.02.43-.18.77-.47,1.03-.3.26-.67.39-1.11.37-.44-.02-.8-.17-1.07-.46-.27-.29-.4-.64-.38-1.07.02-.42.03-1.09.05-2.02.01-.93.03-1.6.05-2.02.03-.65.1-1.47.21-2.45.12-.98.19-1.8.21-2.45.02-.43.18-.77.47-1.03.3-.26.67-.39,1.11-.37.44.02.8.17,1.07.46.27.29.4.64.39,1.07-.03.65-.1,1.47-.21,2.45-.12.98-.19,1.8-.21,2.45Zm-.59-8.12c-.47-.02-.87-.19-1.2-.53-.33-.33-.49-.72-.47-1.18.02-.46.21-.83.57-1.14.36-.3.77-.44,1.24-.42.47.02.87.2,1.2.53.33.33.48.72.46,1.18-.02.46-.21.83-.56,1.14-.35.3-.77.44-1.24.42Z"/>
        <path class="cls-3" d="m1525.83,53.85c-1.62-.07-2.95-.58-4.01-1.55-1.11-1.02-1.64-2.32-1.57-3.91.06-1.46.64-2.95,1.75-4.46,1.25-1.73,2.65-2.56,4.21-2.49.76.03,1.65.28,2.65.73,1.22.56,1.82,1.17,1.79,1.83-.02.36-.15.67-.42.94-.28.29-.63.43-1.04.41-.32-.01-.69-.2-1.12-.56-.43-.36-1.09-.56-1.98-.6-.57-.02-1.2.51-1.91,1.59-.68,1.05-1.03,1.96-1.07,2.74-.03.77.22,1.39.76,1.85.51.44,1.2.68,2.07.72.49.02,1.1-.14,1.83-.49.73-.34,1.19-.51,1.38-.5.4.02.73.17,1,.47s.4.63.38,1c-.02.57-.67,1.12-1.95,1.64-1.14.46-2.06.68-2.77.65Z"/>
        <path class="cls-3" d="m1536.06,48.41c-.02.42-.03,1.09-.05,2.02-.01.93-.03,1.6-.05,2.02-.02.43-.18.77-.47,1.04-.3.26-.67.39-1.11.37s-.8-.17-1.07-.46c-.27-.29-.4-.65-.39-1.07.02-.42.03-1.09.05-2.02.01-.93.03-1.6.05-2.02.03-.65.1-1.47.21-2.45.12-.98.19-1.8.21-2.45.02-.43.18-.77.47-1.03.3-.26.67-.39,1.11-.37.44.02.8.17,1.07.46.27.29.4.64.38,1.07-.03.65-.1,1.47-.21,2.45-.12.98-.19,1.8-.21,2.45Zm-.59-8.12c-.47-.02-.87-.19-1.2-.53-.33-.33-.49-.72-.47-1.18.02-.46.21-.83.57-1.14.36-.3.77-.44,1.24-.42.47.02.87.2,1.2.53.33.33.48.72.46,1.18-.02.46-.21.83-.56,1.14-.35.3-.77.44-1.24.42Z"/>
        <path class="cls-3" d="m1548.21,54.71c-.34-.01-.86-.36-1.57-1.05-.69.29-1.29.51-1.82.66-.52.14-.96.21-1.32.19-1.77-.08-3.08-.61-3.93-1.59-.84-.99-1.23-2.42-1.15-4.31.08-1.77.79-3.26,2.16-4.46,1.36-1.2,2.95-1.77,4.78-1.69.7.03,1.5.26,2.4.69,1.09.52,1.62,1.09,1.59,1.72-.01.26-.11.49-.28.68-.09.29-.16.65-.22,1.09-.06.44-.1.95-.13,1.54-.06,1.39,0,2.39.17,3.01.02.07.17.45.46,1.16.26.64.39,1,.39,1.09-.02.39-.18.7-.49.94-.31.24-.66.35-1.05.34Zm-2.42-7.56c0-.24.04-.5.08-.81.04-.3.11-.64.19-1.01-.14-.08-.27-.14-.38-.18-.11-.04-.21-.06-.29-.06-1-.04-1.89.31-2.67,1.06s-1.2,1.64-1.24,2.67c-.04.98.1,1.73.43,2.24s.85.78,1.56.81c.46.02.89-.04,1.3-.17.42-.13.81-.34,1.18-.62-.15-1.76-.2-3.07-.16-3.94Z"/>
        <path class="cls-3" d="m1554.73,52.76c-.06,1.4-.6,2.07-1.61,2.03-.44-.02-.8-.17-1.07-.46-.28-.29-.4-.66-.39-1.1l.65-15.25c.02-.43.19-.77.51-1.03.3-.24.67-.35,1.11-.33.43.02.78.16,1.05.44.27.27.39.62.38,1.05l-.62,14.65Z"/>
        <path class="cls-3" d="m1560.91,53.02c-.06,1.4-.6,2.07-1.61,2.03-.44-.02-.8-.17-1.07-.47-.28-.29-.4-.66-.39-1.1l.65-15.25c.02-.43.19-.77.51-1.03.3-.24.67-.35,1.11-.33.43.02.78.16,1.05.44.27.27.39.62.38,1.05l-.62,14.65Z"/>
        <path class="cls-3" d="m1574.99,45.91c-.87,1.63-2.25,4.2-4.14,7.7-1.02,1.88-1.81,3.44-2.35,4.68-.17.45-.44,1.12-.81,2-.29.68-.78,1-1.46.98-.42-.02-.78-.17-1.08-.45-.3-.29-.45-.63-.43-1.05.03-.68.89-2.68,2.59-5.98-.74-1.63-1.92-4.03-3.55-7.21-.17-.29-.33-.58-.5-.87-.18-.35-.27-.66-.26-.94.02-.4.19-.74.52-1.03.33-.29.7-.42,1.11-.41.48.02.86.22,1.11.59.99,1.43,2.11,3.58,3.38,6.43.86-1.71,1.38-2.74,1.57-3.09.57-1.07,1.12-2.01,1.66-2.82.34-.52.78-.76,1.33-.74.41.02.77.17,1.08.47.31.29.46.64.44,1.05,0,.21-.08.45-.22.7Z"/>
        <path class="cls-3" d="m1590.02,54.52c-1.14-.05-1.67-.93-1.6-2.65.02-.41.2-.75.54-1.02.33-.24.7-.36,1.13-.34,1.12.05,1.64.92,1.57,2.62-.02.42-.18.76-.5,1.02s-.69.38-1.14.37Zm.14-7.47c-.46-.02-.83-.17-1.11-.46-.29-.28-.42-.64-.4-1.06,0-.08,0-.21-.03-.38-.03-.17-.04-.3-.03-.39.02-.41.19-.74.51-1s.7-.37,1.14-.35c1.1.05,1.62.8,1.56,2.25-.02.42-.18.76-.49,1.02-.31.26-.69.38-1.14.36Z"/>
        <path class="cls-3" d="m1597.67,56.31c-.43-.03-.79-.19-1.07-.49-.28-.3-.42-.66-.4-1.07.03-.74.11-1.84.25-3.3.13-1.47.21-2.57.25-3.3.04-.82.07-2.04.11-3.67.04-1.63.07-2.86.11-3.67.02-.4.23-.8.64-1.18.41-.38.83-.57,1.27-.55.24,0,.84.26,1.8.76,1.12.59,1.78.93,1.99,1,2.12.79,3.92,1.95,5.38,3.47,1.74,1.82,2.57,3.78,2.48,5.89-.05,1.27-.42,2.47-1.09,3.59-.67,1.14-1.57,2.04-2.69,2.7-1.25.74-2.99,1.07-5.2.97-.54-.02-1.15-.13-1.84-.31-.84-.23-1.49-.51-1.96-.83Zm6.68-11.07c-.69-.48-2.19-1.25-4.5-2.31l-.46,10.91c.28.2.6.35.97.46.37.11.78.17,1.24.19,1.59.07,2.74-.1,3.45-.52.67-.39,1.22-.94,1.63-1.64.42-.7.64-1.44.67-2.22.08-1.82-.92-3.44-3-4.86Z"/>
      </g>
    </g>
  </g>
</svg>